<?xml version="1.0" encoding="UTF-8" standalone="no"?>
<!DOCTYPE svg PUBLIC "-//W3C//DTD SVG 1.1//EN"
 "http://www.w3.org/Graphics/SVG/1.1/DTD/svg11.dtd">
<!-- Generated by graphviz version 2.40.1 (20161225.0304)
 -->
<!-- Title: G Pages: 1 -->
<svg width="268pt" height="98pt"
 viewBox="7.20 7.20 260.60 90.90" xmlns="http://www.w3.org/2000/svg" xmlns:xlink="http://www.w3.org/1999/xlink">
<g id="graph0" class="graph" transform="scale(1 1) rotate(0) translate(11.2 86.8978)">
<title>G</title>
<polygon fill="#ffffff" stroke="transparent" points="-4,4 -4,-79.6978 249.3956,-79.6978 249.3956,4 -4,4"/>
<!-- start -->
<g id="node1" class="node">
<title>start</title>
</g>
<!-- 139844188469848 -->
<g id="node2" class="node">
<title>139844188469848</title>
<ellipse fill="none" stroke="#000000" stroke-width="2" cx="56" cy="-24.6978" rx="18" ry="18"/>
<text text-anchor="middle" x="56" y="-20.9978" font-family="Times,serif" font-size="14.00" fill="#000000">S</text>
</g>
<!-- start&#45;&gt;139844188469848 -->
<g id="edge4" class="edge">
<title>start&#45;&gt;139844188469848</title>
<path fill="none" stroke="#000000" stroke-dasharray="5,2" d="M1.1233,-24.6978C3.9234,-24.6978 15.7247,-24.6978 27.6695,-24.6978"/>
<polygon fill="#000000" stroke="#000000" points="27.9808,-28.1979 37.9807,-24.6978 27.9807,-21.1979 27.9808,-28.1979"/>
</g>
<!-- 139844188047176 -->
<g id="node3" class="node">
<title>139844188047176</title>
<ellipse fill="none" stroke="#000000" cx="135" cy="-24.6978" rx="18" ry="18"/>
<text text-anchor="middle" x="135" y="-20.9978" font-family="Times,serif" font-size="14.00" fill="#000000">A</text>
</g>
<!-- 139844188469848&#45;&gt;139844188047176 -->
<g id="edge3" class="edge">
<title>139844188469848&#45;&gt;139844188047176</title>
<path fill="none" stroke="#000000" d="M74.3228,-24.6978C83.8947,-24.6978 95.8223,-24.6978 106.5629,-24.6978"/>
<polygon fill="#000000" stroke="#000000" points="106.7766,-28.1979 116.7766,-24.6978 106.7766,-21.1979 106.7766,-28.1979"/>
<text text-anchor="middle" x="95.5" y="-28.4978" font-family="Times,serif" font-size="14.00" fill="#000000">a</text>
</g>
<!-- 139844188047176&#45;&gt;139844188047176 -->
<g id="edge1" class="edge">
<title>139844188047176&#45;&gt;139844188047176</title>
<path fill="none" stroke="#000000" d="M128.2664,-41.7351C126.8922,-51.5557 129.1367,-60.6978 135,-60.6978 138.6646,-60.6978 140.9155,-57.1267 141.7529,-52.0507"/>
<polygon fill="#000000" stroke="#000000" points="145.2524,-51.7285 141.7336,-41.7351 138.2524,-51.7417 145.2524,-51.7285"/>
<text text-anchor="middle" x="135" y="-64.4978" font-family="Times,serif" font-size="14.00" fill="#000000">a</text>
</g>
<!-- 139844188470128 -->
<g id="node4" class="node">
<title>139844188470128</title>
<ellipse fill="none" stroke="#000000" stroke-width="2" cx="220.6978" cy="-24.6978" rx="24.8972" ry="24.8972"/>
<text text-anchor="middle" x="220.6978" y="-20.9978" font-family="Times,serif" font-size="14.00" fill="#000000">End</text>
</g>
<!-- 139844188047176&#45;&gt;139844188470128 -->
<g id="edge2" class="edge">
<title>139844188047176&#45;&gt;139844188470128</title>
<path fill="none" stroke="#000000" d="M153.1743,-24.6978C162.5571,-24.6978 174.3343,-24.6978 185.4145,-24.6978"/>
<polygon fill="#000000" stroke="#000000" points="185.7234,-28.1979 195.7233,-24.6978 185.7233,-21.1979 185.7234,-28.1979"/>
<text text-anchor="middle" x="174.5" y="-28.4978" font-family="Times,serif" font-size="14.00" fill="#000000">b</text>
</g>
</g>
</svg>
