<?xml version="1.0" encoding="UTF-8" standalone="no"?>
<!DOCTYPE svg PUBLIC "-//W3C//DTD SVG 1.1//EN"
 "http://www.w3.org/Graphics/SVG/1.1/DTD/svg11.dtd">
<!-- Generated by graphviz version 2.40.1 (20161225.0304)
 -->
<!-- Title: G Pages: 1 -->
<svg width="189pt" height="72pt"
 viewBox="7.20 7.20 181.60 64.60" xmlns="http://www.w3.org/2000/svg" xmlns:xlink="http://www.w3.org/1999/xlink">
<g id="graph0" class="graph" transform="scale(1 1) rotate(0) translate(11.2 60.5956)">
<title>G</title>
<polygon fill="#ffffff" stroke="transparent" points="-4,4 -4,-53.3956 170.3956,-53.3956 170.3956,4 -4,4"/>
<!-- start -->
<g id="node1" class="node">
<title>start</title>
</g>
<!-- 140300544038392 -->
<g id="node2" class="node">
<title>140300544038392</title>
<ellipse fill="none" stroke="#000000" cx="56" cy="-24.6978" rx="18" ry="18"/>
<text text-anchor="middle" x="56" y="-20.9978" font-family="Times,serif" font-size="14.00" fill="#000000">S</text>
</g>
<!-- start&#45;&gt;140300544038392 -->
<g id="edge2" class="edge">
<title>start&#45;&gt;140300544038392</title>
<path fill="none" stroke="#000000" stroke-dasharray="5,2" d="M1.1233,-24.6978C3.9234,-24.6978 15.7247,-24.6978 27.6695,-24.6978"/>
<polygon fill="#000000" stroke="#000000" points="27.9808,-28.1979 37.9807,-24.6978 27.9807,-21.1979 27.9808,-28.1979"/>
</g>
<!-- 140300544038224 -->
<g id="node3" class="node">
<title>140300544038224</title>
<ellipse fill="none" stroke="#000000" stroke-width="2" cx="141.6978" cy="-24.6978" rx="24.8972" ry="24.8972"/>
<text text-anchor="middle" x="141.6978" y="-20.9978" font-family="Times,serif" font-size="14.00" fill="#000000">End</text>
</g>
<!-- 140300544038392&#45;&gt;140300544038224 -->
<g id="edge1" class="edge">
<title>140300544038392&#45;&gt;140300544038224</title>
<path fill="none" stroke="#000000" d="M74.1743,-24.6978C83.5571,-24.6978 95.3343,-24.6978 106.4145,-24.6978"/>
<polygon fill="#000000" stroke="#000000" points="106.7234,-28.1979 116.7233,-24.6978 106.7233,-21.1979 106.7234,-28.1979"/>
<text text-anchor="middle" x="95.5" y="-28.4978" font-family="Times,serif" font-size="14.00" fill="#000000">a</text>
</g>
</g>
</svg>
