<?xml version="1.0" encoding="UTF-8" standalone="no"?>
<!DOCTYPE svg PUBLIC "-//W3C//DTD SVG 1.1//EN"
 "http://www.w3.org/Graphics/SVG/1.1/DTD/svg11.dtd">
<!-- Generated by graphviz version 2.40.1 (20161225.0304)
 -->
<!-- Title: G Pages: 1 -->
<svg width="265pt" height="178pt"
 viewBox="7.20 7.20 258.00 171.20" xmlns="http://www.w3.org/2000/svg" xmlns:xlink="http://www.w3.org/1999/xlink">
<g id="graph0" class="graph" transform="scale(1 1) rotate(0) translate(11.2 167.2)">
<title>G</title>
<polygon fill="#ffffff" stroke="transparent" points="-4,4 -4,-160 246.7958,-160 246.7958,4 -4,4"/>
<!-- start -->
<g id="node1" class="node">
<title>start</title>
</g>
<!-- 140420971416264 -->
<g id="node2" class="node">
<title>140420971416264</title>
<ellipse fill="none" stroke="#000000" stroke-width="2" cx="56" cy="-61" rx="18" ry="18"/>
<text text-anchor="middle" x="56" y="-57.3" font-family="Times,serif" font-size="14.00" fill="#000000">S</text>
</g>
<!-- start&#45;&gt;140420971416264 -->
<g id="edge7" class="edge">
<title>start&#45;&gt;140420971416264</title>
<path fill="none" stroke="#000000" stroke-dasharray="5,2" d="M1.1233,-61C3.9234,-61 15.7247,-61 27.6695,-61"/>
<polygon fill="#000000" stroke="#000000" points="27.9808,-64.5001 37.9807,-61 27.9807,-57.5001 27.9808,-64.5001"/>
</g>
<!-- 140420971416992 -->
<g id="node3" class="node">
<title>140420971416992</title>
<ellipse fill="none" stroke="#000000" cx="135" cy="-105" rx="18" ry="18"/>
<text text-anchor="middle" x="135" y="-101.3" font-family="Times,serif" font-size="14.00" fill="#000000">A</text>
</g>
<!-- 140420971416264&#45;&gt;140420971416992 -->
<g id="edge3" class="edge">
<title>140420971416264&#45;&gt;140420971416992</title>
<path fill="none" stroke="#000000" d="M71.9868,-69.9041C82.9089,-75.9872 97.602,-84.1708 110.0526,-91.1053"/>
<polygon fill="#000000" stroke="#000000" points="108.5975,-94.301 119.0369,-96.1092 112.0036,-88.1856 108.5975,-94.301"/>
<text text-anchor="middle" x="95.5" y="-87.8" font-family="Times,serif" font-size="14.00" fill="#000000">a</text>
</g>
<!-- 140420971414360 -->
<g id="node5" class="node">
<title>140420971414360</title>
<ellipse fill="none" stroke="#000000" cx="135" cy="-18" rx="18" ry="18"/>
<text text-anchor="middle" x="135" y="-14.3" font-family="Times,serif" font-size="14.00" fill="#000000">B</text>
</g>
<!-- 140420971416264&#45;&gt;140420971414360 -->
<g id="edge6" class="edge">
<title>140420971416264&#45;&gt;140420971414360</title>
<path fill="none" stroke="#000000" d="M71.9868,-52.2983C82.9089,-46.3534 97.602,-38.3559 110.0526,-31.5789"/>
<polygon fill="#000000" stroke="#000000" points="111.927,-34.5437 119.0369,-26.6888 108.5805,-28.3954 111.927,-34.5437"/>
<text text-anchor="middle" x="95.5" y="-43.8" font-family="Times,serif" font-size="14.00" fill="#000000">b</text>
</g>
<!-- 140420971416992&#45;&gt;140420971416992 -->
<g id="edge1" class="edge">
<title>140420971416992&#45;&gt;140420971416992</title>
<path fill="none" stroke="#000000" d="M128.2664,-122.0373C126.8922,-131.8579 129.1367,-141 135,-141 138.6646,-141 140.9155,-137.4289 141.7529,-132.3529"/>
<polygon fill="#000000" stroke="#000000" points="145.2524,-132.0307 141.7336,-122.0373 138.2524,-132.0439 145.2524,-132.0307"/>
<text text-anchor="middle" x="135" y="-144.8" font-family="Times,serif" font-size="14.00" fill="#000000">a</text>
</g>
<!-- 140420971417048 -->
<g id="node4" class="node">
<title>140420971417048</title>
<ellipse fill="none" stroke="#000000" stroke-width="2" cx="219.3979" cy="-61" rx="23.2963" ry="23.2963"/>
<text text-anchor="middle" x="219.3979" y="-57.3" font-family="Times,serif" font-size="14.00" fill="#000000">end</text>
</g>
<!-- 140420971416992&#45;&gt;140420971417048 -->
<g id="edge2" class="edge">
<title>140420971416992&#45;&gt;140420971417048</title>
<path fill="none" stroke="#000000" d="M151.2728,-96.5164C162.0654,-90.8898 176.5519,-83.3373 189.3913,-76.6437"/>
<polygon fill="#000000" stroke="#000000" points="191.1235,-79.6877 198.3728,-71.9612 187.8875,-73.4806 191.1235,-79.6877"/>
<text text-anchor="middle" x="174.5" y="-88.8" font-family="Times,serif" font-size="14.00" fill="#000000">a</text>
</g>
<!-- 140420971414360&#45;&gt;140420971417048 -->
<g id="edge5" class="edge">
<title>140420971414360&#45;&gt;140420971417048</title>
<path fill="none" stroke="#000000" d="M151.2728,-26.2908C162.0654,-31.7896 176.5519,-39.1703 189.3913,-45.7119"/>
<polygon fill="#000000" stroke="#000000" points="187.8737,-48.8667 198.3728,-50.2879 191.0515,-42.6296 187.8737,-48.8667"/>
<text text-anchor="middle" x="174.5" y="-42.8" font-family="Times,serif" font-size="14.00" fill="#000000">b</text>
</g>
<!-- 140420971414360&#45;&gt;140420971414360 -->
<g id="edge4" class="edge">
<title>140420971414360&#45;&gt;140420971414360</title>
<path fill="none" stroke="#000000" d="M128.2664,-35.0373C126.8922,-44.8579 129.1367,-54 135,-54 138.6646,-54 140.9155,-50.4289 141.7529,-45.3529"/>
<polygon fill="#000000" stroke="#000000" points="145.2524,-45.0307 141.7336,-35.0373 138.2524,-45.0439 145.2524,-45.0307"/>
<text text-anchor="middle" x="135" y="-57.8" font-family="Times,serif" font-size="14.00" fill="#000000">b</text>
</g>
</g>
</svg>
