<?xml version="1.0" encoding="UTF-8" standalone="no"?>
<!DOCTYPE svg PUBLIC "-//W3C//DTD SVG 1.1//EN"
 "http://www.w3.org/Graphics/SVG/1.1/DTD/svg11.dtd">
<!-- Generated by graphviz version 2.40.1 (20161225.0304)
 -->
<!-- Title: G Pages: 1 -->
<svg width="820pt" height="616pt"
 viewBox="7.20 7.20 812.39 609.19" xmlns="http://www.w3.org/2000/svg" xmlns:xlink="http://www.w3.org/1999/xlink">
<g id="graph0" class="graph" transform="scale(1 1) rotate(0) translate(11.2 605.1896)">
<title>G</title>
<polygon fill="#ffffff" stroke="transparent" points="-4,4 -4,-597.9896 801.1855,-597.9896 801.1855,4 -4,4"/>
<!-- start -->
<g id="node1" class="node">
<title>start</title>
</g>
<!-- 140421487542056 -->
<g id="node2" class="node">
<title>140421487542056</title>
<ellipse fill="none" stroke="#000000" stroke-width="2" cx="112.9533" cy="-256.895" rx="74.9067" ry="74.9067"/>
<text text-anchor="middle" x="112.9533" y="-275.695" font-family="Times,serif" font-size="14.00" fill="#000000">S &#45;&gt; .CC, {$}</text>
<text text-anchor="middle" x="112.9533" y="-260.695" font-family="Times,serif" font-size="14.00" fill="#000000">C &#45;&gt; .cC, {c, d}</text>
<text text-anchor="middle" x="112.9533" y="-245.695" font-family="Times,serif" font-size="14.00" fill="#000000">C &#45;&gt; .d, {c, d}</text>
<text text-anchor="middle" x="112.9533" y="-230.695" font-family="Times,serif" font-size="14.00" fill="#000000">S&#39; &#45;&gt; .S, {$}</text>
</g>
<!-- start&#45;&gt;140421487542056 -->
<g id="edge11" class="edge">
<title>start&#45;&gt;140421487542056</title>
<path fill="none" stroke="#000000" stroke-dasharray="5,2" d="M1.2181,-256.895C3.9576,-256.895 14.272,-256.895 27.6037,-256.895"/>
<polygon fill="#000000" stroke="#000000" points="27.7794,-260.3951 37.7794,-256.895 27.7793,-253.3951 27.7794,-260.3951"/>
</g>
<!-- 140421487541832 -->
<g id="node3" class="node">
<title>140421487541832</title>
<ellipse fill="none" stroke="#000000" stroke-width="2" cx="510.3465" cy="-284.895" rx="84.7059" ry="84.7059"/>
<text text-anchor="middle" x="510.3465" y="-296.195" font-family="Times,serif" font-size="14.00" fill="#000000">C &#45;&gt; c.C, {c, d, $}</text>
<text text-anchor="middle" x="510.3465" y="-281.195" font-family="Times,serif" font-size="14.00" fill="#000000">C &#45;&gt; .d, {c, d, $}</text>
<text text-anchor="middle" x="510.3465" y="-266.195" font-family="Times,serif" font-size="14.00" fill="#000000">C &#45;&gt; .cC, {c, d, $}</text>
</g>
<!-- 140421487542056&#45;&gt;140421487541832 -->
<g id="edge4" class="edge">
<title>140421487542056&#45;&gt;140421487541832</title>
<path fill="none" stroke="#000000" d="M185.4012,-276.4839C201.2677,-279.9814 218.0596,-283.0847 233.9066,-284.895 293.9331,-291.7523 361.7709,-291.8655 415.2225,-290.2092"/>
<polygon fill="#000000" stroke="#000000" points="415.4952,-293.7021 425.3721,-289.8682 415.2602,-286.706 415.4952,-293.7021"/>
<text text-anchor="middle" x="306.7002" y="-294.695" font-family="Times,serif" font-size="14.00" fill="#000000">c</text>
</g>
<!-- 140421487542224 -->
<g id="node6" class="node">
<title>140421487542224</title>
<ellipse fill="none" stroke="#000000" stroke-width="2" cx="306.7002" cy="-202.895" rx="72.5877" ry="72.5877"/>
<text text-anchor="middle" x="306.7002" y="-199.195" font-family="Times,serif" font-size="14.00" fill="#000000">C &#45;&gt; d., {c, d, $}</text>
</g>
<!-- 140421487542056&#45;&gt;140421487542224 -->
<g id="edge5" class="edge">
<title>140421487542056&#45;&gt;140421487542224</title>
<path fill="none" stroke="#000000" d="M185.373,-236.7106C198.7789,-232.9742 212.8534,-229.0515 226.475,-225.2549"/>
<polygon fill="#000000" stroke="#000000" points="227.6045,-228.5736 236.2977,-222.5172 225.7251,-221.8306 227.6045,-228.5736"/>
<text text-anchor="middle" x="210.9066" y="-233.695" font-family="Times,serif" font-size="14.00" fill="#000000">d</text>
</g>
<!-- 140421487671112 -->
<g id="node7" class="node">
<title>140421487671112</title>
<ellipse fill="none" stroke="#000000" stroke-width="2" cx="306.7002" cy="-55.895" rx="55.7903" ry="55.7903"/>
<text text-anchor="middle" x="306.7002" y="-52.195" font-family="Times,serif" font-size="14.00" fill="#000000">S&#39; &#45;&gt; S., {$}</text>
</g>
<!-- 140421487542056&#45;&gt;140421487671112 -->
<g id="edge6" class="edge">
<title>140421487542056&#45;&gt;140421487671112</title>
<path fill="none" stroke="#000000" d="M161.5614,-199.3212C183.1002,-174.5863 209.1304,-145.7207 233.9066,-120.895 240.9979,-113.7896 248.7061,-106.4914 256.3656,-99.4702"/>
<polygon fill="#000000" stroke="#000000" points="258.9295,-101.87 263.9844,-92.5587 254.2262,-96.6854 258.9295,-101.87"/>
<text text-anchor="middle" x="210.9066" y="-152.695" font-family="Times,serif" font-size="14.00" fill="#000000">S</text>
</g>
<!-- 140421487672456 -->
<g id="node8" class="node">
<title>140421487672456</title>
<ellipse fill="none" stroke="#000000" stroke-width="2" cx="306.7002" cy="-424.895" rx="66.4361" ry="66.4361"/>
<text text-anchor="middle" x="306.7002" y="-436.195" font-family="Times,serif" font-size="14.00" fill="#000000">S &#45;&gt; C.C, {$}</text>
<text text-anchor="middle" x="306.7002" y="-421.195" font-family="Times,serif" font-size="14.00" fill="#000000">C &#45;&gt; .cC, {$}</text>
<text text-anchor="middle" x="306.7002" y="-406.195" font-family="Times,serif" font-size="14.00" fill="#000000">C &#45;&gt; .d, {$}</text>
</g>
<!-- 140421487542056&#45;&gt;140421487672456 -->
<g id="edge10" class="edge">
<title>140421487542056&#45;&gt;140421487672456</title>
<path fill="none" stroke="#000000" d="M169.7747,-306.1654C194.6675,-327.7503 223.8428,-353.0485 248.8516,-374.7339"/>
<polygon fill="#000000" stroke="#000000" points="246.6216,-377.4329 256.4698,-381.3398 251.2075,-372.1442 246.6216,-377.4329"/>
<text text-anchor="middle" x="210.9066" y="-349.695" font-family="Times,serif" font-size="14.00" fill="#000000">C</text>
</g>
<!-- 140421487541832&#45;&gt;140421487541832 -->
<g id="edge1" class="edge">
<title>140421487541832&#45;&gt;140421487541832</title>
<path fill="none" stroke="#000000" d="M492.5107,-368.0271C495.3954,-379.8286 501.3407,-387.7479 510.3465,-387.7479 516.5381,-387.7479 521.283,-384.0048 524.5813,-377.8304"/>
<polygon fill="#000000" stroke="#000000" points="528.0196,-378.6207 528.1824,-368.0271 521.4489,-376.207 528.0196,-378.6207"/>
<text text-anchor="middle" x="510.3465" y="-391.5479" font-family="Times,serif" font-size="14.00" fill="#000000">c</text>
</g>
<!-- 140421487673072 -->
<g id="node4" class="node">
<title>140421487673072</title>
<ellipse fill="none" stroke="#000000" stroke-width="2" cx="719.1924" cy="-438.895" rx="72.5877" ry="72.5877"/>
<text text-anchor="middle" x="719.1924" y="-435.195" font-family="Times,serif" font-size="14.00" fill="#000000">C &#45;&gt; d., {c, d, $}</text>
</g>
<!-- 140421487541832&#45;&gt;140421487673072 -->
<g id="edge2" class="edge">
<title>140421487541832&#45;&gt;140421487673072</title>
<path fill="none" stroke="#000000" d="M578.7305,-335.3204C602.3546,-352.7405 628.7836,-372.2289 652.2878,-389.5605"/>
<polygon fill="#000000" stroke="#000000" points="650.3444,-392.4761 660.4701,-395.594 654.4988,-386.8422 650.3444,-392.4761"/>
<text text-anchor="middle" x="618.1993" y="-369.695" font-family="Times,serif" font-size="14.00" fill="#000000">d</text>
</g>
<!-- 140421487670720 -->
<g id="node5" class="node">
<title>140421487670720</title>
<ellipse fill="none" stroke="#000000" stroke-width="2" cx="719.1924" cy="-269.895" rx="77.9862" ry="77.9862"/>
<text text-anchor="middle" x="719.1924" y="-266.195" font-family="Times,serif" font-size="14.00" fill="#000000">C &#45;&gt; cC., {c, d, $}</text>
</g>
<!-- 140421487541832&#45;&gt;140421487670720 -->
<g id="edge3" class="edge">
<title>140421487541832&#45;&gt;140421487670720</title>
<path fill="none" stroke="#000000" d="M594.9911,-278.8156C606.9164,-277.9591 619.1989,-277.0769 631.1854,-276.216"/>
<polygon fill="#000000" stroke="#000000" points="631.4466,-279.7063 641.1701,-275.4989 630.9451,-272.7243 631.4466,-279.7063"/>
<text text-anchor="middle" x="618.1993" y="-280.695" font-family="Times,serif" font-size="14.00" fill="#000000">C</text>
</g>
<!-- 140421487672456&#45;&gt;140421487541832 -->
<g id="edge7" class="edge">
<title>140421487672456&#45;&gt;140421487541832</title>
<path fill="none" stroke="#000000" d="M361.5416,-387.1934C383.0505,-372.4068 408.1417,-355.1574 431.5252,-339.0821"/>
<polygon fill="#000000" stroke="#000000" points="433.7953,-341.7688 440.0531,-333.2194 429.8297,-336.0004 433.7953,-341.7688"/>
<text text-anchor="middle" x="402.4937" y="-362.695" font-family="Times,serif" font-size="14.00" fill="#000000">c</text>
</g>
<!-- 140421487672456&#45;&gt;140421487673072 -->
<g id="edge8" class="edge">
<title>140421487672456&#45;&gt;140421487673072</title>
<path fill="none" stroke="#000000" d="M373.4326,-427.1599C445.0083,-429.5892 558.7856,-433.4508 636.1125,-436.0753"/>
<polygon fill="#000000" stroke="#000000" points="636.1874,-439.5798 646.3004,-436.4211 636.4249,-432.5838 636.1874,-439.5798"/>
<text text-anchor="middle" x="510.3465" y="-437.695" font-family="Times,serif" font-size="14.00" fill="#000000">d</text>
</g>
<!-- 140421487671896 -->
<g id="node9" class="node">
<title>140421487671896</title>
<ellipse fill="none" stroke="#000000" stroke-width="2" cx="510.3465" cy="-532.895" rx="61.1893" ry="61.1893"/>
<text text-anchor="middle" x="510.3465" y="-529.195" font-family="Times,serif" font-size="14.00" fill="#000000">S &#45;&gt; CC., {$}</text>
</g>
<!-- 140421487672456&#45;&gt;140421487671896 -->
<g id="edge9" class="edge">
<title>140421487672456&#45;&gt;140421487671896</title>
<path fill="none" stroke="#000000" d="M365.6031,-456.1331C391.1377,-469.6749 421.08,-485.5542 447.0849,-499.3454"/>
<polygon fill="#000000" stroke="#000000" points="445.6309,-502.536 456.1053,-504.1292 448.9106,-496.3519 445.6309,-502.536"/>
<text text-anchor="middle" x="402.4937" y="-478.695" font-family="Times,serif" font-size="14.00" fill="#000000">C</text>
</g>
</g>
</svg>
