<?xml version="1.0" encoding="UTF-8" standalone="no"?>
<!DOCTYPE svg PUBLIC "-//W3C//DTD SVG 1.1//EN"
 "http://www.w3.org/Graphics/SVG/1.1/DTD/svg11.dtd">
<!-- Generated by graphviz version 2.40.1 (20161225.0304)
 -->
<!-- Title: G Pages: 1 -->
<svg width="233pt" height="404pt"
 viewBox="0.00 0.00 233.00 404.00" xmlns="http://www.w3.org/2000/svg" xmlns:xlink="http://www.w3.org/1999/xlink">
<g id="graph0" class="graph" transform="scale(1 1) rotate(0) translate(4 400)">
<title>G</title>
<polygon fill="#ffffff" stroke="transparent" points="-4,4 -4,-400 229,-400 229,4 -4,4"/>
<!-- 0ce27aa5ab4f478b880ae81c8803db61 -->
<g id="node1" class="node">
<title>0ce27aa5ab4f478b880ae81c8803db61</title>
<ellipse fill="#ffffff" stroke="#000000" cx="99" cy="-378" rx="18" ry="18"/>
<text text-anchor="middle" x="99" y="-374.3" font-family="Times,serif" font-size="14.00" fill="#000000">S</text>
</g>
<!-- aa32784ce59f4e2caff09fb5b1eaf08d -->
<g id="node2" class="node">
<title>aa32784ce59f4e2caff09fb5b1eaf08d</title>
<ellipse fill="#ffffff" stroke="#000000" cx="72" cy="-306" rx="18" ry="18"/>
<text text-anchor="middle" x="72" y="-302.3" font-family="Times,serif" font-size="14.00" fill="#000000">C</text>
</g>
<!-- 0ce27aa5ab4f478b880ae81c8803db61&#45;&gt;aa32784ce59f4e2caff09fb5b1eaf08d -->
<g id="edge8" class="edge">
<title>0ce27aa5ab4f478b880ae81c8803db61&#45;&gt;aa32784ce59f4e2caff09fb5b1eaf08d</title>
<path fill="none" stroke="#000000" d="M92.6014,-360.937C89.407,-352.4186 85.471,-341.9227 81.8982,-332.3952"/>
<polygon fill="#000000" stroke="#000000" points="85.1411,-331.0749 78.3527,-322.9405 78.5868,-333.5328 85.1411,-331.0749"/>
</g>
<!-- fdc4382a32fc4f68a5db9b891548c3ad -->
<g id="node10" class="node">
<title>fdc4382a32fc4f68a5db9b891548c3ad</title>
<ellipse fill="#ffffff" stroke="#000000" cx="126" cy="-306" rx="18" ry="18"/>
<text text-anchor="middle" x="126" y="-302.3" font-family="Times,serif" font-size="14.00" fill="#000000">C</text>
</g>
<!-- 0ce27aa5ab4f478b880ae81c8803db61&#45;&gt;fdc4382a32fc4f68a5db9b891548c3ad -->
<g id="edge14" class="edge">
<title>0ce27aa5ab4f478b880ae81c8803db61&#45;&gt;fdc4382a32fc4f68a5db9b891548c3ad</title>
<path fill="none" stroke="#000000" d="M105.3986,-360.937C108.593,-352.4186 112.529,-341.9227 116.1018,-332.3952"/>
<polygon fill="#000000" stroke="#000000" points="119.4132,-333.5328 119.6473,-322.9405 112.8589,-331.0749 119.4132,-333.5328"/>
</g>
<!-- 18704ce536ea46a891e2323347ed86cf -->
<g id="node3" class="node">
<title>18704ce536ea46a891e2323347ed86cf</title>
<ellipse fill="#ffffff" stroke="#000000" cx="18" cy="-234" rx="18" ry="18"/>
<text text-anchor="middle" x="18" y="-230.3" font-family="Times,serif" font-size="14.00" fill="#000000">c</text>
</g>
<!-- aa32784ce59f4e2caff09fb5b1eaf08d&#45;&gt;18704ce536ea46a891e2323347ed86cf -->
<g id="edge1" class="edge">
<title>aa32784ce59f4e2caff09fb5b1eaf08d&#45;&gt;18704ce536ea46a891e2323347ed86cf</title>
<path fill="none" stroke="#000000" d="M61.0723,-291.4297C53.6066,-281.4754 43.5632,-268.0842 35.0526,-256.7368"/>
<polygon fill="#000000" stroke="#000000" points="37.7115,-254.4486 28.9115,-248.5486 32.1115,-258.6486 37.7115,-254.4486"/>
</g>
<!-- 02c7440d87704fe5b59d8c84a49226a5 -->
<g id="node4" class="node">
<title>02c7440d87704fe5b59d8c84a49226a5</title>
<ellipse fill="#ffffff" stroke="#000000" cx="72" cy="-234" rx="18" ry="18"/>
<text text-anchor="middle" x="72" y="-230.3" font-family="Times,serif" font-size="14.00" fill="#000000">C</text>
</g>
<!-- aa32784ce59f4e2caff09fb5b1eaf08d&#45;&gt;02c7440d87704fe5b59d8c84a49226a5 -->
<g id="edge7" class="edge">
<title>aa32784ce59f4e2caff09fb5b1eaf08d&#45;&gt;02c7440d87704fe5b59d8c84a49226a5</title>
<path fill="none" stroke="#000000" d="M72,-287.8314C72,-280.131 72,-270.9743 72,-262.4166"/>
<polygon fill="#000000" stroke="#000000" points="75.5001,-262.4132 72,-252.4133 68.5001,-262.4133 75.5001,-262.4132"/>
</g>
<!-- 853a1e8c95024d5f9a0455c5287040de -->
<g id="node5" class="node">
<title>853a1e8c95024d5f9a0455c5287040de</title>
<ellipse fill="#ffffff" stroke="#000000" cx="18" cy="-162" rx="18" ry="18"/>
<text text-anchor="middle" x="18" y="-158.3" font-family="Times,serif" font-size="14.00" fill="#000000">c</text>
</g>
<!-- 02c7440d87704fe5b59d8c84a49226a5&#45;&gt;853a1e8c95024d5f9a0455c5287040de -->
<g id="edge2" class="edge">
<title>02c7440d87704fe5b59d8c84a49226a5&#45;&gt;853a1e8c95024d5f9a0455c5287040de</title>
<path fill="none" stroke="#000000" d="M61.0723,-219.4297C53.6066,-209.4754 43.5632,-196.0842 35.0526,-184.7368"/>
<polygon fill="#000000" stroke="#000000" points="37.7115,-182.4486 28.9115,-176.5486 32.1115,-186.6486 37.7115,-182.4486"/>
</g>
<!-- 744234d7b84847d69a26a22e1f72af69 -->
<g id="node6" class="node">
<title>744234d7b84847d69a26a22e1f72af69</title>
<ellipse fill="#ffffff" stroke="#000000" cx="72" cy="-162" rx="18" ry="18"/>
<text text-anchor="middle" x="72" y="-158.3" font-family="Times,serif" font-size="14.00" fill="#000000">C</text>
</g>
<!-- 02c7440d87704fe5b59d8c84a49226a5&#45;&gt;744234d7b84847d69a26a22e1f72af69 -->
<g id="edge6" class="edge">
<title>02c7440d87704fe5b59d8c84a49226a5&#45;&gt;744234d7b84847d69a26a22e1f72af69</title>
<path fill="none" stroke="#000000" d="M72,-215.8314C72,-208.131 72,-198.9743 72,-190.4166"/>
<polygon fill="#000000" stroke="#000000" points="75.5001,-190.4132 72,-180.4133 68.5001,-190.4133 75.5001,-190.4132"/>
</g>
<!-- b109e67b815541f2979c001f29681265 -->
<g id="node7" class="node">
<title>b109e67b815541f2979c001f29681265</title>
<ellipse fill="#ffffff" stroke="#000000" cx="45" cy="-90" rx="18" ry="18"/>
<text text-anchor="middle" x="45" y="-86.3" font-family="Times,serif" font-size="14.00" fill="#000000">c</text>
</g>
<!-- 744234d7b84847d69a26a22e1f72af69&#45;&gt;b109e67b815541f2979c001f29681265 -->
<g id="edge3" class="edge">
<title>744234d7b84847d69a26a22e1f72af69&#45;&gt;b109e67b815541f2979c001f29681265</title>
<path fill="none" stroke="#000000" d="M65.6014,-144.937C62.407,-136.4186 58.471,-125.9227 54.8982,-116.3952"/>
<polygon fill="#000000" stroke="#000000" points="58.1411,-115.0749 51.3527,-106.9405 51.5868,-117.5328 58.1411,-115.0749"/>
</g>
<!-- b2b05476afc34d5fb83c91cacfa1cb17 -->
<g id="node8" class="node">
<title>b2b05476afc34d5fb83c91cacfa1cb17</title>
<ellipse fill="#ffffff" stroke="#000000" cx="99" cy="-90" rx="18" ry="18"/>
<text text-anchor="middle" x="99" y="-86.3" font-family="Times,serif" font-size="14.00" fill="#000000">C</text>
</g>
<!-- 744234d7b84847d69a26a22e1f72af69&#45;&gt;b2b05476afc34d5fb83c91cacfa1cb17 -->
<g id="edge5" class="edge">
<title>744234d7b84847d69a26a22e1f72af69&#45;&gt;b2b05476afc34d5fb83c91cacfa1cb17</title>
<path fill="none" stroke="#000000" d="M78.3986,-144.937C81.593,-136.4186 85.529,-125.9227 89.1018,-116.3952"/>
<polygon fill="#000000" stroke="#000000" points="92.4132,-117.5328 92.6473,-106.9405 85.8589,-115.0749 92.4132,-117.5328"/>
</g>
<!-- 63ca9a14cc5142fbabaaa737273c9fd4 -->
<g id="node9" class="node">
<title>63ca9a14cc5142fbabaaa737273c9fd4</title>
<ellipse fill="#ffffff" stroke="#000000" cx="99" cy="-18" rx="18" ry="18"/>
<text text-anchor="middle" x="99" y="-14.3" font-family="Times,serif" font-size="14.00" fill="#000000">d</text>
</g>
<!-- b2b05476afc34d5fb83c91cacfa1cb17&#45;&gt;63ca9a14cc5142fbabaaa737273c9fd4 -->
<g id="edge4" class="edge">
<title>b2b05476afc34d5fb83c91cacfa1cb17&#45;&gt;63ca9a14cc5142fbabaaa737273c9fd4</title>
<path fill="none" stroke="#000000" d="M99,-71.8314C99,-64.131 99,-54.9743 99,-46.4166"/>
<polygon fill="#000000" stroke="#000000" points="102.5001,-46.4132 99,-36.4133 95.5001,-46.4133 102.5001,-46.4132"/>
</g>
<!-- d511efa365904c8b8675b0928e178d39 -->
<g id="node11" class="node">
<title>d511efa365904c8b8675b0928e178d39</title>
<ellipse fill="#ffffff" stroke="#000000" cx="126" cy="-234" rx="18" ry="18"/>
<text text-anchor="middle" x="126" y="-230.3" font-family="Times,serif" font-size="14.00" fill="#000000">c</text>
</g>
<!-- fdc4382a32fc4f68a5db9b891548c3ad&#45;&gt;d511efa365904c8b8675b0928e178d39 -->
<g id="edge9" class="edge">
<title>fdc4382a32fc4f68a5db9b891548c3ad&#45;&gt;d511efa365904c8b8675b0928e178d39</title>
<path fill="none" stroke="#000000" d="M126,-287.8314C126,-280.131 126,-270.9743 126,-262.4166"/>
<polygon fill="#000000" stroke="#000000" points="129.5001,-262.4132 126,-252.4133 122.5001,-262.4133 129.5001,-262.4132"/>
</g>
<!-- 76e4cd3887dc4451a78165341253b4d1 -->
<g id="node12" class="node">
<title>76e4cd3887dc4451a78165341253b4d1</title>
<ellipse fill="#ffffff" stroke="#000000" cx="180" cy="-234" rx="18" ry="18"/>
<text text-anchor="middle" x="180" y="-230.3" font-family="Times,serif" font-size="14.00" fill="#000000">C</text>
</g>
<!-- fdc4382a32fc4f68a5db9b891548c3ad&#45;&gt;76e4cd3887dc4451a78165341253b4d1 -->
<g id="edge13" class="edge">
<title>fdc4382a32fc4f68a5db9b891548c3ad&#45;&gt;76e4cd3887dc4451a78165341253b4d1</title>
<path fill="none" stroke="#000000" d="M136.9277,-291.4297C144.3934,-281.4754 154.4368,-268.0842 162.9474,-256.7368"/>
<polygon fill="#000000" stroke="#000000" points="165.8885,-258.6486 169.0885,-248.5486 160.2885,-254.4486 165.8885,-258.6486"/>
</g>
<!-- 7fd666f10a1b481ea19d70383e6e9018 -->
<g id="node13" class="node">
<title>7fd666f10a1b481ea19d70383e6e9018</title>
<ellipse fill="#ffffff" stroke="#000000" cx="153" cy="-162" rx="18" ry="18"/>
<text text-anchor="middle" x="153" y="-158.3" font-family="Times,serif" font-size="14.00" fill="#000000">c</text>
</g>
<!-- 76e4cd3887dc4451a78165341253b4d1&#45;&gt;7fd666f10a1b481ea19d70383e6e9018 -->
<g id="edge10" class="edge">
<title>76e4cd3887dc4451a78165341253b4d1&#45;&gt;7fd666f10a1b481ea19d70383e6e9018</title>
<path fill="none" stroke="#000000" d="M173.6014,-216.937C170.407,-208.4186 166.471,-197.9227 162.8982,-188.3952"/>
<polygon fill="#000000" stroke="#000000" points="166.1411,-187.0749 159.3527,-178.9405 159.5868,-189.5328 166.1411,-187.0749"/>
</g>
<!-- 1f36cd3638214673b925eb995baebaea -->
<g id="node14" class="node">
<title>1f36cd3638214673b925eb995baebaea</title>
<ellipse fill="#ffffff" stroke="#000000" cx="207" cy="-162" rx="18" ry="18"/>
<text text-anchor="middle" x="207" y="-158.3" font-family="Times,serif" font-size="14.00" fill="#000000">C</text>
</g>
<!-- 76e4cd3887dc4451a78165341253b4d1&#45;&gt;1f36cd3638214673b925eb995baebaea -->
<g id="edge12" class="edge">
<title>76e4cd3887dc4451a78165341253b4d1&#45;&gt;1f36cd3638214673b925eb995baebaea</title>
<path fill="none" stroke="#000000" d="M186.3986,-216.937C189.593,-208.4186 193.529,-197.9227 197.1018,-188.3952"/>
<polygon fill="#000000" stroke="#000000" points="200.4132,-189.5328 200.6473,-178.9405 193.8589,-187.0749 200.4132,-189.5328"/>
</g>
<!-- 91b1f8b268b04ba3a92ca93b55af6837 -->
<g id="node15" class="node">
<title>91b1f8b268b04ba3a92ca93b55af6837</title>
<ellipse fill="#ffffff" stroke="#000000" cx="207" cy="-90" rx="18" ry="18"/>
<text text-anchor="middle" x="207" y="-86.3" font-family="Times,serif" font-size="14.00" fill="#000000">d</text>
</g>
<!-- 1f36cd3638214673b925eb995baebaea&#45;&gt;91b1f8b268b04ba3a92ca93b55af6837 -->
<g id="edge11" class="edge">
<title>1f36cd3638214673b925eb995baebaea&#45;&gt;91b1f8b268b04ba3a92ca93b55af6837</title>
<path fill="none" stroke="#000000" d="M207,-143.8314C207,-136.131 207,-126.9743 207,-118.4166"/>
<polygon fill="#000000" stroke="#000000" points="210.5001,-118.4132 207,-108.4133 203.5001,-118.4133 210.5001,-118.4132"/>
</g>
</g>
</svg>
