<?xml version="1.0" encoding="UTF-8" standalone="no"?>
<!DOCTYPE svg PUBLIC "-//W3C//DTD SVG 1.1//EN"
 "http://www.w3.org/Graphics/SVG/1.1/DTD/svg11.dtd">
<!-- Generated by graphviz version 2.40.1 (20161225.0304)
 -->
<!-- Title: G Pages: 1 -->
<svg width="1677pt" height="868pt"
 viewBox="7.20 7.20 1670.23 861.01" xmlns="http://www.w3.org/2000/svg" xmlns:xlink="http://www.w3.org/1999/xlink">
<g id="graph0" class="graph" transform="scale(1 1) rotate(0) translate(11.2 857.0118)">
<title>G</title>
<polygon fill="#ffffff" stroke="transparent" points="-4,4 -4,-849.8118 1659.0341,-849.8118 1659.0341,4 -4,4"/>
<!-- start -->
<g id="node1" class="node">
<title>start</title>
</g>
<!-- 140420979490040 -->
<g id="node2" class="node">
<title>140420979490040</title>
<ellipse fill="none" stroke="#000000" stroke-width="2" cx="139.1163" cy="-101.1163" rx="101.2327" ry="101.2327"/>
<text text-anchor="middle" x="139.1163" y="-157.4163" font-family="Times,serif" font-size="14.00" fill="#000000">S&#39; &#45;&gt; .E, </text>
<text text-anchor="middle" x="139.1163" y="-142.4163" font-family="Times,serif" font-size="14.00" fill="#000000">F &#45;&gt; .F/T, </text>
<text text-anchor="middle" x="139.1163" y="-127.4163" font-family="Times,serif" font-size="14.00" fill="#000000">E &#45;&gt; .E+F, </text>
<text text-anchor="middle" x="139.1163" y="-112.4163" font-family="Times,serif" font-size="14.00" fill="#000000">E &#45;&gt; .F, </text>
<text text-anchor="middle" x="139.1163" y="-97.4163" font-family="Times,serif" font-size="14.00" fill="#000000">T &#45;&gt; .(E), </text>
<text text-anchor="middle" x="139.1163" y="-82.4163" font-family="Times,serif" font-size="14.00" fill="#000000">E &#45;&gt; .E&#45;F, </text>
<text text-anchor="middle" x="139.1163" y="-67.4163" font-family="Times,serif" font-size="14.00" fill="#000000">F &#45;&gt; .F*T, </text>
<text text-anchor="middle" x="139.1163" y="-52.4163" font-family="Times,serif" font-size="14.00" fill="#000000">T &#45;&gt; .num, </text>
<text text-anchor="middle" x="139.1163" y="-37.4163" font-family="Times,serif" font-size="14.00" fill="#000000">F &#45;&gt; .T, </text>
</g>
<!-- start&#45;&gt;140420979490040 -->
<g id="edge36" class="edge">
<title>start&#45;&gt;140420979490040</title>
<path fill="none" stroke="#000000" stroke-dasharray="5,2" d="M1.3852,-101.1163C4.3167,-101.1163 14.2854,-101.1163 27.6154,-101.1163"/>
<polygon fill="#000000" stroke="#000000" points="27.8632,-104.6164 37.8632,-101.1163 27.8631,-97.6164 27.8632,-104.6164"/>
</g>
<!-- 140420979032528 -->
<g id="node3" class="node">
<title>140420979032528</title>
<ellipse fill="none" stroke="#000000" stroke-width="2" cx="1256.6236" cy="-248.1163" rx="41.6928" ry="41.6928"/>
<text text-anchor="middle" x="1256.6236" y="-244.4163" font-family="Times,serif" font-size="14.00" fill="#000000">F &#45;&gt; T., </text>
</g>
<!-- 140420979490040&#45;&gt;140420979032528 -->
<g id="edge1" class="edge">
<title>140420979490040&#45;&gt;140420979032528</title>
<path fill="none" stroke="#000000" d="M235.3782,-69.7974C268.0317,-61.6526 304.9609,-55.1163 339.3869,-55.1163 339.3869,-55.1163 339.3869,-55.1163 819.825,-55.1163 963.4348,-55.1163 1014.3584,-33.8807 1139.055,-105.1163 1178.9763,-127.9221 1210.9928,-169.8921 1231.4734,-202.4875"/>
<polygon fill="#000000" stroke="#000000" points="1228.7314,-204.7116 1236.9411,-211.4088 1234.6997,-201.0538 1228.7314,-204.7116"/>
<text text-anchor="middle" x="696.2088" y="-58.9163" font-family="Times,serif" font-size="14.00" fill="#000000">T</text>
</g>
<!-- 140420978883776 -->
<g id="node4" class="node">
<title>140420978883776</title>
<ellipse fill="none" stroke="#000000" stroke-width="2" cx="339.3869" cy="-522.1163" rx="55.3091" ry="55.3091"/>
<text text-anchor="middle" x="339.3869" y="-533.4163" font-family="Times,serif" font-size="14.00" fill="#000000">F &#45;&gt; F./T, </text>
<text text-anchor="middle" x="339.3869" y="-518.4163" font-family="Times,serif" font-size="14.00" fill="#000000">F &#45;&gt; F.*T, </text>
<text text-anchor="middle" x="339.3869" y="-503.4163" font-family="Times,serif" font-size="14.00" fill="#000000">E &#45;&gt; F., </text>
</g>
<!-- 140420979490040&#45;&gt;140420978883776 -->
<g id="edge30" class="edge">
<title>140420979490040&#45;&gt;140420978883776</title>
<path fill="none" stroke="#000000" d="M182.572,-192.467C221.6018,-274.5137 277.7613,-392.5697 311.2118,-462.8879"/>
<polygon fill="#000000" stroke="#000000" points="308.1201,-464.5363 315.5765,-472.0631 314.4413,-461.5292 308.1201,-464.5363"/>
<text text-anchor="middle" x="262.2325" y="-364.9163" font-family="Times,serif" font-size="14.00" fill="#000000">F</text>
</g>
<!-- 140420979040152 -->
<g id="node7" class="node">
<title>140420979040152</title>
<ellipse fill="none" stroke="#000000" stroke-width="2" cx="696.2088" cy="-399.1163" rx="101.2327" ry="101.2327"/>
<text text-anchor="middle" x="696.2088" y="-455.4163" font-family="Times,serif" font-size="14.00" fill="#000000">F &#45;&gt; .F/T, </text>
<text text-anchor="middle" x="696.2088" y="-440.4163" font-family="Times,serif" font-size="14.00" fill="#000000">T &#45;&gt; (.E), </text>
<text text-anchor="middle" x="696.2088" y="-425.4163" font-family="Times,serif" font-size="14.00" fill="#000000">E &#45;&gt; .E+F, </text>
<text text-anchor="middle" x="696.2088" y="-410.4163" font-family="Times,serif" font-size="14.00" fill="#000000">E &#45;&gt; .F, </text>
<text text-anchor="middle" x="696.2088" y="-395.4163" font-family="Times,serif" font-size="14.00" fill="#000000">T &#45;&gt; .(E), </text>
<text text-anchor="middle" x="696.2088" y="-380.4163" font-family="Times,serif" font-size="14.00" fill="#000000">E &#45;&gt; .E&#45;F, </text>
<text text-anchor="middle" x="696.2088" y="-365.4163" font-family="Times,serif" font-size="14.00" fill="#000000">F &#45;&gt; .F*T, </text>
<text text-anchor="middle" x="696.2088" y="-350.4163" font-family="Times,serif" font-size="14.00" fill="#000000">T &#45;&gt; .num, </text>
<text text-anchor="middle" x="696.2088" y="-335.4163" font-family="Times,serif" font-size="14.00" fill="#000000">F &#45;&gt; .T, </text>
</g>
<!-- 140420979490040&#45;&gt;140420979040152 -->
<g id="edge34" class="edge">
<title>140420979490040&#45;&gt;140420979040152</title>
<path fill="none" stroke="#000000" d="M228.3138,-148.8298C329.2669,-202.8317 493.2306,-290.5392 597.828,-346.4904"/>
<polygon fill="#000000" stroke="#000000" points="596.3507,-349.6694 606.8193,-351.3001 599.6525,-343.497 596.3507,-349.6694"/>
<text text-anchor="middle" x="415.0412" y="-251.9163" font-family="Times,serif" font-size="14.00" fill="#000000">(</text>
</g>
<!-- 140420979037240 -->
<g id="node13" class="node">
<title>140420979037240</title>
<ellipse fill="none" stroke="#000000" stroke-width="2" cx="1602.3888" cy="-245.1163" rx="52.7911" ry="52.7911"/>
<text text-anchor="middle" x="1602.3888" y="-241.4163" font-family="Times,serif" font-size="14.00" fill="#000000">T &#45;&gt; num., </text>
</g>
<!-- 140420979490040&#45;&gt;140420979037240 -->
<g id="edge35" class="edge">
<title>140420979490040&#45;&gt;140420979037240</title>
<path fill="none" stroke="#000000" d="M222.5524,-43.6354C257.1322,-25.0386 298.6374,-9.1163 339.3869,-9.1163 339.3869,-9.1163 339.3869,-9.1163 1431.4678,-9.1163 1517.9544,-9.1163 1565.1533,-114.3648 1586.9676,-184.2901"/>
<polygon fill="#000000" stroke="#000000" points="1583.6317,-185.3506 1589.8787,-193.9078 1590.3315,-183.3226 1583.6317,-185.3506"/>
<text text-anchor="middle" x="898.8936" y="-12.9163" font-family="Times,serif" font-size="14.00" fill="#000000">num</text>
</g>
<!-- 140420979038808 -->
<g id="node17" class="node">
<title>140420979038808</title>
<ellipse fill="none" stroke="#000000" stroke-width="2" cx="898.8936" cy="-178.1163" rx="56.6372" ry="56.6372"/>
<text text-anchor="middle" x="898.8936" y="-189.4163" font-family="Times,serif" font-size="14.00" fill="#000000">S&#39; &#45;&gt; E., </text>
<text text-anchor="middle" x="898.8936" y="-174.4163" font-family="Times,serif" font-size="14.00" fill="#000000">E &#45;&gt; E.&#45;F, </text>
<text text-anchor="middle" x="898.8936" y="-159.4163" font-family="Times,serif" font-size="14.00" fill="#000000">E &#45;&gt; E.+F, </text>
</g>
<!-- 140420979490040&#45;&gt;140420979038808 -->
<g id="edge33" class="edge">
<title>140420979490040&#45;&gt;140420979038808</title>
<path fill="none" stroke="#000000" d="M240.4851,-101.1163C272.1586,-101.1163 307.2254,-101.1163 339.3869,-101.1163 339.3869,-101.1163 339.3869,-101.1163 696.2088,-101.1163 747.61,-101.1163 801.8444,-123.0247 841.2646,-143.4693"/>
<polygon fill="#000000" stroke="#000000" points="839.977,-146.7483 850.4506,-148.3461 843.2593,-140.5656 839.977,-146.7483"/>
<text text-anchor="middle" x="492.8168" y="-104.9163" font-family="Times,serif" font-size="14.00" fill="#000000">E</text>
</g>
<!-- 140420979010976 -->
<g id="node5" class="node">
<title>140420979010976</title>
<ellipse fill="none" stroke="#000000" stroke-width="2" cx="492.8168" cy="-601.1163" rx="57.0522" ry="57.0522"/>
<text text-anchor="middle" x="492.8168" y="-612.4163" font-family="Times,serif" font-size="14.00" fill="#000000">T &#45;&gt; .(E), </text>
<text text-anchor="middle" x="492.8168" y="-597.4163" font-family="Times,serif" font-size="14.00" fill="#000000">F &#45;&gt; F/.T, </text>
<text text-anchor="middle" x="492.8168" y="-582.4163" font-family="Times,serif" font-size="14.00" fill="#000000">T &#45;&gt; .num, </text>
</g>
<!-- 140420978883776&#45;&gt;140420979010976 -->
<g id="edge28" class="edge">
<title>140420978883776&#45;&gt;140420979010976</title>
<path fill="none" stroke="#000000" d="M388.7776,-547.5472C402.779,-554.7564 418.1771,-562.6848 432.7357,-570.1809"/>
<polygon fill="#000000" stroke="#000000" points="431.179,-573.316 441.6719,-574.7821 434.3834,-567.0926 431.179,-573.316"/>
<text text-anchor="middle" x="415.0412" y="-564.9163" font-family="Times,serif" font-size="14.00" fill="#000000">/</text>
</g>
<!-- 140420979011312 -->
<g id="node11" class="node">
<title>140420979011312</title>
<ellipse fill="none" stroke="#000000" stroke-width="2" cx="1431.4678" cy="-625.1163" rx="57.0522" ry="57.0522"/>
<text text-anchor="middle" x="1431.4678" y="-636.4163" font-family="Times,serif" font-size="14.00" fill="#000000">T &#45;&gt; .(E), </text>
<text text-anchor="middle" x="1431.4678" y="-621.4163" font-family="Times,serif" font-size="14.00" fill="#000000">T &#45;&gt; .num, </text>
<text text-anchor="middle" x="1431.4678" y="-606.4163" font-family="Times,serif" font-size="14.00" fill="#000000">F &#45;&gt; F*.T, </text>
</g>
<!-- 140420978883776&#45;&gt;140420979011312 -->
<g id="edge29" class="edge">
<title>140420978883776&#45;&gt;140420979011312</title>
<path fill="none" stroke="#000000" d="M344.658,-577.3533C355.8972,-659.7115 390.2621,-805.1163 492.8168,-805.1163 492.8168,-805.1163 492.8168,-805.1163 977.9621,-805.1163 1129.48,-805.1163 1180.1894,-815.6968 1313.1921,-743.1163 1342.4725,-727.1378 1369.314,-701.7029 1389.9991,-678.5319"/>
<polygon fill="#000000" stroke="#000000" points="1392.8298,-680.6116 1396.7727,-670.7777 1387.5579,-676.0064 1392.8298,-680.6116"/>
<text text-anchor="middle" x="898.8936" y="-808.9163" font-family="Times,serif" font-size="14.00" fill="#000000">*</text>
</g>
<!-- 140420979814472 -->
<g id="node6" class="node">
<title>140420979814472</title>
<ellipse fill="none" stroke="#000000" stroke-width="2" cx="696.2088" cy="-639.1163" rx="48.9926" ry="48.9926"/>
<text text-anchor="middle" x="696.2088" y="-635.4163" font-family="Times,serif" font-size="14.00" fill="#000000">F &#45;&gt; F/T., </text>
</g>
<!-- 140420979010976&#45;&gt;140420979814472 -->
<g id="edge2" class="edge">
<title>140420979010976&#45;&gt;140420979814472</title>
<path fill="none" stroke="#000000" d="M549.2027,-611.6509C576.845,-616.8154 610.1012,-623.0287 637.9858,-628.2384"/>
<polygon fill="#000000" stroke="#000000" points="637.5229,-631.7124 647.9956,-630.1085 638.8085,-624.8315 637.5229,-631.7124"/>
<text text-anchor="middle" x="572.5925" y="-619.9163" font-family="Times,serif" font-size="14.00" fill="#000000">T</text>
</g>
<!-- 140420979010976&#45;&gt;140420979040152 -->
<g id="edge26" class="edge">
<title>140420979010976&#45;&gt;140420979040152</title>
<path fill="none" stroke="#000000" d="M533.4874,-560.724C557.4265,-536.9488 588.5247,-506.0634 617.1132,-477.6705"/>
<polygon fill="#000000" stroke="#000000" points="619.6926,-480.0417 624.3215,-470.5116 614.7598,-475.075 619.6926,-480.0417"/>
<text text-anchor="middle" x="572.5925" y="-527.9163" font-family="Times,serif" font-size="14.00" fill="#000000">(</text>
</g>
<!-- 140420979010976&#45;&gt;140420979037240 -->
<g id="edge27" class="edge">
<title>140420979010976&#45;&gt;140420979037240</title>
<path fill="none" stroke="#000000" d="M520.378,-651.6221C537.8633,-677.8278 563.21,-707.0378 595.0925,-720.1163 831.938,-817.2721 913.5569,-762.1163 1169.555,-762.1163 1169.555,-762.1163 1169.555,-762.1163 1431.4678,-762.1163 1526.2309,-762.1163 1577.3954,-445.0388 1595.1302,-307.5137"/>
<polygon fill="#000000" stroke="#000000" points="1598.6097,-307.8957 1596.3989,-297.5341 1591.6656,-307.0128 1598.6097,-307.8957"/>
<text text-anchor="middle" x="1069.7586" y="-772.9163" font-family="Times,serif" font-size="14.00" fill="#000000">num</text>
</g>
<!-- 140420979040152&#45;&gt;140420979032528 -->
<g id="edge3" class="edge">
<title>140420979040152&#45;&gt;140420979032528</title>
<path fill="none" stroke="#000000" d="M786.9995,-354.5292C805.0579,-346.6847 824.0818,-339.1218 842.325,-333.1163 969.477,-291.2585 1125.6464,-265.9098 1205.0138,-254.7852"/>
<polygon fill="#000000" stroke="#000000" points="1205.8038,-258.2093 1215.2301,-253.3726 1204.8449,-251.2753 1205.8038,-258.2093"/>
<text text-anchor="middle" x="977.9621" y="-299.9163" font-family="Times,serif" font-size="14.00" fill="#000000">T</text>
</g>
<!-- 140420979040152&#45;&gt;140420978883776 -->
<g id="edge4" class="edge">
<title>140420979040152&#45;&gt;140420978883776</title>
<path fill="none" stroke="#000000" d="M600.4537,-432.124C537.1942,-453.9302 456.1368,-481.8714 401.2482,-500.7921"/>
<polygon fill="#000000" stroke="#000000" points="399.9674,-497.5314 391.654,-504.0993 402.2487,-504.1492 399.9674,-497.5314"/>
<text text-anchor="middle" x="492.8168" y="-491.9163" font-family="Times,serif" font-size="14.00" fill="#000000">F</text>
</g>
<!-- 140420979040152&#45;&gt;140420979040152 -->
<g id="edge24" class="edge">
<title>140420979040152&#45;&gt;140420979040152</title>
<path fill="none" stroke="#000000" d="M676.5506,-498.6028C680.1248,-510.4776 686.6775,-518.2325 696.2088,-518.2325 702.9104,-518.2325 708.1396,-514.3986 711.8961,-507.9944"/>
<polygon fill="#000000" stroke="#000000" points="715.1963,-509.1764 715.867,-498.6028 708.7489,-506.4503 715.1963,-509.1764"/>
<text text-anchor="middle" x="696.2088" y="-522.0325" font-family="Times,serif" font-size="14.00" fill="#000000">(</text>
</g>
<!-- 140420979039592 -->
<g id="node8" class="node">
<title>140420979039592</title>
<ellipse fill="none" stroke="#000000" stroke-width="2" cx="898.8936" cy="-399.1163" rx="56.6372" ry="56.6372"/>
<text text-anchor="middle" x="898.8936" y="-410.4163" font-family="Times,serif" font-size="14.00" fill="#000000">E &#45;&gt; E.&#45;F, </text>
<text text-anchor="middle" x="898.8936" y="-395.4163" font-family="Times,serif" font-size="14.00" fill="#000000">T &#45;&gt; (E.), </text>
<text text-anchor="middle" x="898.8936" y="-380.4163" font-family="Times,serif" font-size="14.00" fill="#000000">E &#45;&gt; E.+F, </text>
</g>
<!-- 140420979040152&#45;&gt;140420979039592 -->
<g id="edge23" class="edge">
<title>140420979040152&#45;&gt;140420979039592</title>
<path fill="none" stroke="#000000" d="M797.5512,-399.1163C809.2958,-399.1163 821.0404,-399.1163 832.1541,-399.1163"/>
<polygon fill="#000000" stroke="#000000" points="832.1651,-402.6164 842.165,-399.1163 832.165,-395.6164 832.1651,-402.6164"/>
<text text-anchor="middle" x="819.825" y="-402.9163" font-family="Times,serif" font-size="14.00" fill="#000000">E</text>
</g>
<!-- 140420979040152&#45;&gt;140420979037240 -->
<g id="edge25" class="edge">
<title>140420979040152&#45;&gt;140420979037240</title>
<path fill="none" stroke="#000000" d="M721.8216,-300.9856C743.4994,-237.4987 781.0724,-158.3447 842.325,-112.1163 960.6096,-22.845 1021.364,-48.1163 1169.555,-48.1163 1169.555,-48.1163 1169.555,-48.1163 1431.4678,-48.1163 1505.2422,-48.1163 1554.3434,-127.9133 1580.2946,-185.9347"/>
<polygon fill="#000000" stroke="#000000" points="1577.2155,-187.6308 1584.4137,-195.4049 1583.6346,-184.8387 1577.2155,-187.6308"/>
<text text-anchor="middle" x="1169.555" y="-51.9163" font-family="Times,serif" font-size="14.00" fill="#000000">num</text>
</g>
<!-- 140420979037072 -->
<g id="node9" class="node">
<title>140420979037072</title>
<ellipse fill="none" stroke="#000000" stroke-width="2" cx="1069.7586" cy="-491.1163" rx="69.0935" ry="69.0935"/>
<text text-anchor="middle" x="1069.7586" y="-524.9163" font-family="Times,serif" font-size="14.00" fill="#000000">F &#45;&gt; .F/T, </text>
<text text-anchor="middle" x="1069.7586" y="-509.9163" font-family="Times,serif" font-size="14.00" fill="#000000">T &#45;&gt; .(E), </text>
<text text-anchor="middle" x="1069.7586" y="-494.9163" font-family="Times,serif" font-size="14.00" fill="#000000">E &#45;&gt; E&#45;.F, </text>
<text text-anchor="middle" x="1069.7586" y="-479.9163" font-family="Times,serif" font-size="14.00" fill="#000000">F &#45;&gt; .F*T, </text>
<text text-anchor="middle" x="1069.7586" y="-464.9163" font-family="Times,serif" font-size="14.00" fill="#000000">T &#45;&gt; .num, </text>
<text text-anchor="middle" x="1069.7586" y="-449.9163" font-family="Times,serif" font-size="14.00" fill="#000000">F &#45;&gt; .T, </text>
</g>
<!-- 140420979039592&#45;&gt;140420979037072 -->
<g id="edge14" class="edge">
<title>140420979039592&#45;&gt;140420979037072</title>
<path fill="none" stroke="#000000" d="M948.7741,-425.9738C964.7115,-434.5551 982.6579,-444.2181 999.752,-453.4222"/>
<polygon fill="#000000" stroke="#000000" points="998.1342,-456.5261 1008.5983,-458.1853 1001.4528,-450.3628 998.1342,-456.5261"/>
<text text-anchor="middle" x="977.9621" y="-445.9163" font-family="Times,serif" font-size="14.00" fill="#000000">&#45;</text>
</g>
<!-- 140420978875360 -->
<g id="node14" class="node">
<title>140420978875360</title>
<ellipse fill="none" stroke="#000000" stroke-width="2" cx="1069.7586" cy="-183.1163" rx="69.0935" ry="69.0935"/>
<text text-anchor="middle" x="1069.7586" y="-216.9163" font-family="Times,serif" font-size="14.00" fill="#000000">F &#45;&gt; .F/T, </text>
<text text-anchor="middle" x="1069.7586" y="-201.9163" font-family="Times,serif" font-size="14.00" fill="#000000">T &#45;&gt; .(E), </text>
<text text-anchor="middle" x="1069.7586" y="-186.9163" font-family="Times,serif" font-size="14.00" fill="#000000">F &#45;&gt; .F*T, </text>
<text text-anchor="middle" x="1069.7586" y="-171.9163" font-family="Times,serif" font-size="14.00" fill="#000000">T &#45;&gt; .num, </text>
<text text-anchor="middle" x="1069.7586" y="-156.9163" font-family="Times,serif" font-size="14.00" fill="#000000">F &#45;&gt; .T, </text>
<text text-anchor="middle" x="1069.7586" y="-141.9163" font-family="Times,serif" font-size="14.00" fill="#000000">E &#45;&gt; E+.F, </text>
</g>
<!-- 140420979039592&#45;&gt;140420978875360 -->
<g id="edge21" class="edge">
<title>140420979039592&#45;&gt;140420978875360</title>
<path fill="none" stroke="#000000" d="M926.4321,-349.6289C936.1817,-331.2168 946.856,-309.9714 955.4621,-290.1163 965.0215,-268.0619 958.1306,-257.629 973.4621,-239.1163 980.3564,-230.7914 988.8303,-223.4324 997.8654,-217.0142"/>
<polygon fill="#000000" stroke="#000000" points="999.9216,-219.8498 1006.2916,-211.3837 996.0324,-214.0296 999.9216,-219.8498"/>
<text text-anchor="middle" x="977.9621" y="-242.9163" font-family="Times,serif" font-size="14.00" fill="#000000">+</text>
</g>
<!-- 140420979037408 -->
<g id="node16" class="node">
<title>140420979037408</title>
<ellipse fill="none" stroke="#000000" stroke-width="2" cx="1069.7586" cy="-356.1163" rx="48.1917" ry="48.1917"/>
<text text-anchor="middle" x="1069.7586" y="-352.4163" font-family="Times,serif" font-size="14.00" fill="#000000">T &#45;&gt; (E)., </text>
</g>
<!-- 140420979039592&#45;&gt;140420979037408 -->
<g id="edge22" class="edge">
<title>140420979039592&#45;&gt;140420979037408</title>
<path fill="none" stroke="#000000" d="M953.8969,-385.2741C972.8382,-380.5073 994.0751,-375.1628 1013.1427,-370.3643"/>
<polygon fill="#000000" stroke="#000000" points="1014.049,-373.7454 1022.8924,-367.9106 1012.3406,-366.9571 1014.049,-373.7454"/>
<text text-anchor="middle" x="977.9621" y="-383.9163" font-family="Times,serif" font-size="14.00" fill="#000000">)</text>
</g>
<!-- 140420979037072&#45;&gt;140420979032528 -->
<g id="edge5" class="edge">
<title>140420979037072&#45;&gt;140420979032528</title>
<path fill="none" stroke="#000000" d="M1118.1559,-440.7632C1125.6001,-431.8881 1132.8594,-422.4832 1139.055,-413.1163 1149.3647,-397.5296 1147.2292,-391.0124 1157.055,-375.1163 1176.3119,-343.9628 1201.8646,-311.5104 1222.2622,-287.2089"/>
<polygon fill="#000000" stroke="#000000" points="1225.1738,-289.1867 1228.9655,-279.2936 1219.8319,-284.6628 1225.1738,-289.1867"/>
<text text-anchor="middle" x="1169.555" y="-378.9163" font-family="Times,serif" font-size="14.00" fill="#000000">T</text>
</g>
<!-- 140420979037072&#45;&gt;140420979040152 -->
<g id="edge12" class="edge">
<title>140420979037072&#45;&gt;140420979040152</title>
<path fill="none" stroke="#000000" d="M1000.2784,-488.7558C954.6894,-485.8518 894.1426,-479.4039 842.325,-465.1163 826.992,-460.8885 811.2242,-455.2599 795.9796,-449.0664"/>
<polygon fill="#000000" stroke="#000000" points="797.1409,-445.7587 786.5638,-445.1446 794.4493,-452.2206 797.1409,-445.7587"/>
<text text-anchor="middle" x="898.8936" y="-487.9163" font-family="Times,serif" font-size="14.00" fill="#000000">(</text>
</g>
<!-- 140420979210448 -->
<g id="node10" class="node">
<title>140420979210448</title>
<ellipse fill="none" stroke="#000000" stroke-width="2" cx="1256.6236" cy="-679.1163" rx="55.3091" ry="55.3091"/>
<text text-anchor="middle" x="1256.6236" y="-690.4163" font-family="Times,serif" font-size="14.00" fill="#000000">E &#45;&gt; E&#45;F., </text>
<text text-anchor="middle" x="1256.6236" y="-675.4163" font-family="Times,serif" font-size="14.00" fill="#000000">F &#45;&gt; F./T, </text>
<text text-anchor="middle" x="1256.6236" y="-660.4163" font-family="Times,serif" font-size="14.00" fill="#000000">F &#45;&gt; F.*T, </text>
</g>
<!-- 140420979037072&#45;&gt;140420979210448 -->
<g id="edge11" class="edge">
<title>140420979037072&#45;&gt;140420979210448</title>
<path fill="none" stroke="#000000" d="M1118.8552,-540.5111C1147.1454,-568.9732 1182.4955,-604.5379 1210.304,-632.5153"/>
<polygon fill="#000000" stroke="#000000" points="1208.0359,-635.1983 1217.5679,-639.8234 1213.0006,-630.2635 1208.0359,-635.1983"/>
<text text-anchor="middle" x="1169.555" y="-604.9163" font-family="Times,serif" font-size="14.00" fill="#000000">F</text>
</g>
<!-- 140420979037072&#45;&gt;140420979037240 -->
<g id="edge13" class="edge">
<title>140420979037072&#45;&gt;140420979037240</title>
<path fill="none" stroke="#000000" d="M1132.6869,-462.0523C1237.1958,-413.7839 1444.9705,-317.8213 1545.4065,-271.434"/>
<polygon fill="#000000" stroke="#000000" points="1546.8817,-274.608 1554.4927,-267.2375 1543.9466,-268.2531 1546.8817,-274.608"/>
<text text-anchor="middle" x="1343.6921" y="-371.9163" font-family="Times,serif" font-size="14.00" fill="#000000">num</text>
</g>
<!-- 140420979210448&#45;&gt;140420979010976 -->
<g id="edge6" class="edge">
<title>140420979210448&#45;&gt;140420979010976</title>
<path fill="none" stroke="#000000" d="M1203.6102,-695.345C1166.5005,-705.2864 1115.5629,-716.1163 1069.7586,-716.1163 696.2088,-716.1163 696.2088,-716.1163 696.2088,-716.1163 650.4817,-716.1163 635.8665,-717.8151 595.0925,-697.1163 573.6252,-686.2184 553.4859,-669.4212 536.8502,-652.9062"/>
<polygon fill="#000000" stroke="#000000" points="538.9584,-650.0565 529.4612,-645.3602 533.9569,-654.954 538.9584,-650.0565"/>
<text text-anchor="middle" x="898.8936" y="-719.9163" font-family="Times,serif" font-size="14.00" fill="#000000">/</text>
</g>
<!-- 140420979210448&#45;&gt;140420979011312 -->
<g id="edge10" class="edge">
<title>140420979210448&#45;&gt;140420979011312</title>
<path fill="none" stroke="#000000" d="M1309.5571,-662.7679C1327.6167,-657.1903 1348.0149,-650.8904 1366.8861,-645.0621"/>
<polygon fill="#000000" stroke="#000000" points="1368.073,-648.3587 1376.5948,-642.0636 1366.0073,-641.6704 1368.073,-648.3587"/>
<text text-anchor="middle" x="1343.6921" y="-658.9163" font-family="Times,serif" font-size="14.00" fill="#000000">*</text>
</g>
<!-- 140420979011312&#45;&gt;140420979040152 -->
<g id="edge8" class="edge">
<title>140420979011312&#45;&gt;140420979040152</title>
<path fill="none" stroke="#000000" d="M1374.1009,-619.5753C1273.5759,-609.5475 1069.6939,-587.7035 1000.4621,-569.1163 926.9081,-549.3686 908.9042,-540.0943 842.325,-503.1163 823.0868,-492.4314 803.3343,-479.7195 784.8177,-466.9141"/>
<polygon fill="#000000" stroke="#000000" points="786.6044,-463.8927 776.4034,-461.031 782.5933,-469.6296 786.6044,-463.8927"/>
<text text-anchor="middle" x="1069.7586" y="-595.9163" font-family="Times,serif" font-size="14.00" fill="#000000">(</text>
</g>
<!-- 140420980089016 -->
<g id="node12" class="node">
<title>140420980089016</title>
<ellipse fill="none" stroke="#000000" stroke-width="2" cx="1602.3888" cy="-795.1163" rx="50.8918" ry="50.8918"/>
<text text-anchor="middle" x="1602.3888" y="-791.4163" font-family="Times,serif" font-size="14.00" fill="#000000">F &#45;&gt; F*T., </text>
</g>
<!-- 140420979011312&#45;&gt;140420980089016 -->
<g id="edge7" class="edge">
<title>140420979011312&#45;&gt;140420980089016</title>
<path fill="none" stroke="#000000" d="M1472.4076,-665.8355C1498.5869,-691.8737 1532.4994,-725.6035 1559.1204,-752.081"/>
<polygon fill="#000000" stroke="#000000" points="1556.8646,-754.7739 1566.423,-759.3443 1561.801,-749.8108 1556.8646,-754.7739"/>
<text text-anchor="middle" x="1519.2434" y="-723.9163" font-family="Times,serif" font-size="14.00" fill="#000000">T</text>
</g>
<!-- 140420979011312&#45;&gt;140420979037240 -->
<g id="edge9" class="edge">
<title>140420979011312&#45;&gt;140420979037240</title>
<path fill="none" stroke="#000000" d="M1457.5238,-573.6504C1478.3246,-532.0246 1507.84,-471.7292 1531.7434,-418.1163 1548.5169,-380.495 1566.0297,-337.6368 1579.4224,-303.9903"/>
<polygon fill="#000000" stroke="#000000" points="1582.8287,-304.8954 1583.2634,-294.3095 1576.3221,-302.3138 1582.8287,-304.8954"/>
<text text-anchor="middle" x="1519.2434" y="-472.9163" font-family="Times,serif" font-size="14.00" fill="#000000">num</text>
</g>
<!-- 140420978875360&#45;&gt;140420979032528 -->
<g id="edge15" class="edge">
<title>140420978875360&#45;&gt;140420979032528</title>
<path fill="none" stroke="#000000" d="M1135.3774,-205.9414C1159.1951,-214.2263 1185.6661,-223.4341 1207.7825,-231.1271"/>
<polygon fill="#000000" stroke="#000000" points="1206.6973,-234.4553 1217.2921,-234.435 1208.9971,-227.8439 1206.6973,-234.4553"/>
<text text-anchor="middle" x="1169.555" y="-225.9163" font-family="Times,serif" font-size="14.00" fill="#000000">T</text>
</g>
<!-- 140420978875360&#45;&gt;140420979040152 -->
<g id="edge19" class="edge">
<title>140420978875360&#45;&gt;140420979040152</title>
<path fill="none" stroke="#000000" d="M1005.228,-209.0267C994.2866,-214.415 983.2954,-220.4936 973.4621,-227.1163 964.3352,-233.2632 964.8303,-238.3435 955.4621,-244.1163 898.3608,-279.3027 870.6719,-262.2299 815.325,-300.1163 803.6965,-308.0763 791.8372,-316.9261 780.3288,-325.9678"/>
<polygon fill="#000000" stroke="#000000" points="778.0759,-323.2876 772.4248,-332.2495 782.4312,-328.7677 778.0759,-323.2876"/>
<text text-anchor="middle" x="898.8936" y="-287.9163" font-family="Times,serif" font-size="14.00" fill="#000000">(</text>
</g>
<!-- 140420978875360&#45;&gt;140420979037240 -->
<g id="edge20" class="edge">
<title>140420978875360&#45;&gt;140420979037240</title>
<path fill="none" stroke="#000000" d="M1139.1782,-185.1331C1187.9695,-187.0329 1254.7117,-190.6004 1313.1921,-197.1163 1392.0439,-205.9019 1482.1012,-221.7867 1540.4775,-232.8668"/>
<polygon fill="#000000" stroke="#000000" points="1540.1615,-236.3697 1550.6406,-234.8081 1541.4749,-229.494 1540.1615,-236.3697"/>
<text text-anchor="middle" x="1343.6921" y="-206.9163" font-family="Times,serif" font-size="14.00" fill="#000000">num</text>
</g>
<!-- 140420979011144 -->
<g id="node15" class="node">
<title>140420979011144</title>
<ellipse fill="none" stroke="#000000" stroke-width="2" cx="1256.6236" cy="-511.1163" rx="56.6372" ry="56.6372"/>
<text text-anchor="middle" x="1256.6236" y="-522.4163" font-family="Times,serif" font-size="14.00" fill="#000000">F &#45;&gt; F./T, </text>
<text text-anchor="middle" x="1256.6236" y="-507.4163" font-family="Times,serif" font-size="14.00" fill="#000000">F &#45;&gt; F.*T, </text>
<text text-anchor="middle" x="1256.6236" y="-492.4163" font-family="Times,serif" font-size="14.00" fill="#000000">E &#45;&gt; E+F., </text>
</g>
<!-- 140420978875360&#45;&gt;140420979011144 -->
<g id="edge18" class="edge">
<title>140420978875360&#45;&gt;140420979011144</title>
<path fill="none" stroke="#000000" d="M1117.9405,-233.4774C1139.5606,-257.9454 1164.1662,-288.6083 1182.055,-319.1163 1205.6496,-359.3549 1224.5601,-408.4376 1237.4339,-446.9038"/>
<polygon fill="#000000" stroke="#000000" points="1234.123,-448.0398 1240.576,-456.4427 1240.7716,-445.8497 1234.123,-448.0398"/>
<text text-anchor="middle" x="1169.555" y="-322.9163" font-family="Times,serif" font-size="14.00" fill="#000000">F</text>
</g>
<!-- 140420979011144&#45;&gt;140420979010976 -->
<g id="edge16" class="edge">
<title>140420979011144&#45;&gt;140420979010976</title>
<path fill="none" stroke="#000000" d="M1221.0501,-555.1944C1199.9171,-577.7698 1171.0372,-603.0007 1139.055,-615.1163 1081.4528,-636.9373 1062.0446,-616.4462 1000.4621,-615.1163 918.1214,-613.3381 887.4355,-646.9062 815.325,-607.1163 803.0195,-600.3262 809.7743,-587.6391 797.325,-581.1163 717.7102,-539.4018 684.555,-572.4511 595.0925,-581.1163 583.2746,-582.2609 570.7947,-584.133 558.7689,-586.2843"/>
<polygon fill="#000000" stroke="#000000" points="557.9854,-582.8701 548.7984,-588.1473 559.2712,-589.751 557.9854,-582.8701"/>
<text text-anchor="middle" x="898.8936" y="-629.9163" font-family="Times,serif" font-size="14.00" fill="#000000">/</text>
</g>
<!-- 140420979011144&#45;&gt;140420979011312 -->
<g id="edge17" class="edge">
<title>140420979011144&#45;&gt;140420979011312</title>
<path fill="none" stroke="#000000" d="M1306.8427,-537.5119C1322.902,-546.4392 1340.5607,-556.7762 1356.1921,-567.1163 1363.6698,-572.0627 1371.3649,-577.5227 1378.8481,-583.0554"/>
<polygon fill="#000000" stroke="#000000" points="1376.7644,-585.8676 1386.8647,-589.0666 1380.9638,-580.2671 1376.7644,-585.8676"/>
<text text-anchor="middle" x="1343.6921" y="-570.9163" font-family="Times,serif" font-size="14.00" fill="#000000">*</text>
</g>
<!-- 140420979038808&#45;&gt;140420979037072 -->
<g id="edge31" class="edge">
<title>140420979038808&#45;&gt;140420979037072</title>
<path fill="none" stroke="#000000" d="M940.5412,-216.8471C956.23,-233.8084 972.6384,-254.8996 982.4621,-277.1163 1007.1195,-332.8796 975.1012,-357.6694 1000.4621,-413.1163 1003.9279,-420.6937 1008.3857,-428.0663 1013.3669,-435.0633"/>
<polygon fill="#000000" stroke="#000000" points="1010.6096,-437.2199 1019.4269,-443.0941 1016.1973,-433.0035 1010.6096,-437.2199"/>
<text text-anchor="middle" x="977.9621" y="-280.9163" font-family="Times,serif" font-size="14.00" fill="#000000">&#45;</text>
</g>
<!-- 140420979038808&#45;&gt;140420978875360 -->
<g id="edge32" class="edge">
<title>140420979038808&#45;&gt;140420978875360</title>
<path fill="none" stroke="#000000" d="M955.4839,-176.4392C961.5522,-176.3069 967.6349,-176.1944 973.4621,-176.1163 978.9617,-176.0425 984.6336,-176.1027 990.3431,-176.2636"/>
<polygon fill="#000000" stroke="#000000" points="990.506,-179.7723 1000.6319,-176.6551 990.7722,-172.7773 990.506,-179.7723"/>
<text text-anchor="middle" x="977.9621" y="-179.9163" font-family="Times,serif" font-size="14.00" fill="#000000">+</text>
</g>
</g>
</svg>
