<?xml version="1.0" encoding="UTF-8" standalone="no"?>
<!DOCTYPE svg PUBLIC "-//W3C//DTD SVG 1.1//EN"
 "http://www.w3.org/Graphics/SVG/1.1/DTD/svg11.dtd">
<!-- Generated by graphviz version 2.40.1 (20161225.0304)
 -->
<!-- Title: G Pages: 1 -->
<svg width="2879pt" height="871pt"
 viewBox="7.20 7.20 2871.55 864.20" xmlns="http://www.w3.org/2000/svg" xmlns:xlink="http://www.w3.org/1999/xlink">
<g id="graph0" class="graph" transform="scale(1 1) rotate(0) translate(11.2 860.2)">
<title>G</title>
<polygon fill="#ffffff" stroke="transparent" points="-4,4 -4,-853 2860.3468,-853 2860.3468,4 -4,4"/>
<!-- start -->
<g id="node1" class="node">
<title>start</title>
</g>
<!-- 140423419253480 -->
<g id="node2" class="node">
<title>140423419253480</title>
<ellipse fill="none" stroke="#000000" stroke-width="2" cx="129.2168" cy="-252" rx="91.4341" ry="91.4341"/>
<text text-anchor="middle" x="129.2168" y="-293.3" font-family="Times,serif" font-size="14.00" fill="#000000">S&#39; &#45;&gt; .E, {$}</text>
<text text-anchor="middle" x="129.2168" y="-278.3" font-family="Times,serif" font-size="14.00" fill="#000000">E &#45;&gt; .T, {$, +}</text>
<text text-anchor="middle" x="129.2168" y="-263.3" font-family="Times,serif" font-size="14.00" fill="#000000">T &#45;&gt; .T*F, {*, $, +}</text>
<text text-anchor="middle" x="129.2168" y="-248.3" font-family="Times,serif" font-size="14.00" fill="#000000">F &#45;&gt; .id, {*, $, +}</text>
<text text-anchor="middle" x="129.2168" y="-233.3" font-family="Times,serif" font-size="14.00" fill="#000000">E &#45;&gt; .E+T, {$, +}</text>
<text text-anchor="middle" x="129.2168" y="-218.3" font-family="Times,serif" font-size="14.00" fill="#000000">F &#45;&gt; .(E), {*, $, +}</text>
<text text-anchor="middle" x="129.2168" y="-203.3" font-family="Times,serif" font-size="14.00" fill="#000000">T &#45;&gt; .F, {*, $, +}</text>
</g>
<!-- start&#45;&gt;140423419253480 -->
<g id="edge39" class="edge">
<title>start&#45;&gt;140423419253480</title>
<path fill="none" stroke="#000000" stroke-dasharray="5,2" d="M1.322,-252C4.182,-252 14.255,-252 27.5826,-252"/>
<polygon fill="#000000" stroke="#000000" points="27.8059,-255.5001 37.8058,-252 27.8058,-248.5001 27.8059,-255.5001"/>
</g>
<!-- 140423419254992 -->
<g id="node3" class="node">
<title>140423419254992</title>
<ellipse fill="none" stroke="#000000" stroke-width="2" cx="1427.4333" cy="-523" rx="89.6056" ry="89.6056"/>
<text text-anchor="middle" x="1427.4333" y="-564.3" font-family="Times,serif" font-size="14.00" fill="#000000">F &#45;&gt; (.E), {*, $, +}</text>
<text text-anchor="middle" x="1427.4333" y="-549.3" font-family="Times,serif" font-size="14.00" fill="#000000">T &#45;&gt; .F, {*, +, )}</text>
<text text-anchor="middle" x="1427.4333" y="-534.3" font-family="Times,serif" font-size="14.00" fill="#000000">F &#45;&gt; .(E), {*, +, )}</text>
<text text-anchor="middle" x="1427.4333" y="-519.3" font-family="Times,serif" font-size="14.00" fill="#000000">E &#45;&gt; .E+T, {+, )}</text>
<text text-anchor="middle" x="1427.4333" y="-504.3" font-family="Times,serif" font-size="14.00" fill="#000000">F &#45;&gt; .id, {*, +, )}</text>
<text text-anchor="middle" x="1427.4333" y="-489.3" font-family="Times,serif" font-size="14.00" fill="#000000">T &#45;&gt; .T*F, {*, +, )}</text>
<text text-anchor="middle" x="1427.4333" y="-474.3" font-family="Times,serif" font-size="14.00" fill="#000000">E &#45;&gt; .T, {+, )}</text>
</g>
<!-- 140423419253480&#45;&gt;140423419254992 -->
<g id="edge24" class="edge">
<title>140423419253480&#45;&gt;140423419254992</title>
<path fill="none" stroke="#000000" d="M157.8784,-338.8103C190.2772,-418.413 251.4754,-524 348.165,-524 348.165,-524 348.165,-524 1199.414,-524 1241.2935,-524 1287.4994,-523.8292 1327.304,-523.6288"/>
<polygon fill="#000000" stroke="#000000" points="1327.5644,-527.1276 1337.5462,-523.5759 1327.5282,-520.1277 1327.5644,-527.1276"/>
<text text-anchor="middle" x="855.2636" y="-527.8" font-family="Times,serif" font-size="14.00" fill="#000000">(</text>
</g>
<!-- 140423419254208 -->
<g id="node16" class="node">
<title>140423419254208</title>
<ellipse fill="none" stroke="#000000" stroke-width="2" cx="1427.4333" cy="-154" rx="75.2868" ry="75.2868"/>
<text text-anchor="middle" x="1427.4333" y="-150.3" font-family="Times,serif" font-size="14.00" fill="#000000">F &#45;&gt; id., {*, $, +}</text>
</g>
<!-- 140423419253480&#45;&gt;140423419254208 -->
<g id="edge25" class="edge">
<title>140423419253480&#45;&gt;140423419254208</title>
<path fill="none" stroke="#000000" d="M163.1838,-167.3408C197.9734,-96.1817 259.5449,-6 348.165,-6 348.165,-6 348.165,-6 1199.414,-6 1265.3054,-6 1327.147,-50.021 1369.7575,-90.0466"/>
<polygon fill="#000000" stroke="#000000" points="1367.5807,-92.8084 1377.2214,-97.2026 1372.4252,-87.7555 1367.5807,-92.8084"/>
<text text-anchor="middle" x="855.2636" y="-9.8" font-family="Times,serif" font-size="14.00" fill="#000000">id</text>
</g>
<!-- 140423419255720 -->
<g id="node17" class="node">
<title>140423419255720</title>
<ellipse fill="none" stroke="#000000" stroke-width="2" cx="348.165" cy="-252" rx="82.9636" ry="82.9636"/>
<text text-anchor="middle" x="348.165" y="-255.8" font-family="Times,serif" font-size="14.00" fill="#000000">S&#39; &#45;&gt; E., {$}</text>
<text text-anchor="middle" x="348.165" y="-240.8" font-family="Times,serif" font-size="14.00" fill="#000000">E &#45;&gt; E.+T, {$, +}</text>
</g>
<!-- 140423419253480&#45;&gt;140423419255720 -->
<g id="edge35" class="edge">
<title>140423419253480&#45;&gt;140423419255720</title>
<path fill="none" stroke="#000000" d="M220.4851,-252C232.0108,-252 243.8135,-252 255.3627,-252"/>
<polygon fill="#000000" stroke="#000000" points="255.4334,-255.5001 265.4334,-252 255.4333,-248.5001 255.4334,-255.5001"/>
<text text-anchor="middle" x="242.9335" y="-255.8" font-family="Times,serif" font-size="14.00" fill="#000000">E</text>
</g>
<!-- 140423419256112 -->
<g id="node22" class="node">
<title>140423419256112</title>
<ellipse fill="none" stroke="#000000" stroke-width="2" cx="969.9804" cy="-108" rx="74.187" ry="74.187"/>
<text text-anchor="middle" x="969.9804" y="-104.3" font-family="Times,serif" font-size="14.00" fill="#000000">T &#45;&gt; F., {*, $, +}</text>
</g>
<!-- 140423419253480&#45;&gt;140423419256112 -->
<g id="edge38" class="edge">
<title>140423419253480&#45;&gt;140423419256112</title>
<path fill="none" stroke="#000000" d="M200.0337,-194.0922C220.0674,-180.6105 242.6509,-167.9017 265.4335,-160 479.1649,-85.8719 750.6467,-91.5672 885.7134,-100.5425"/>
<polygon fill="#000000" stroke="#000000" points="885.7719,-104.0547 895.9886,-101.2493 886.2524,-97.0712 885.7719,-104.0547"/>
<text text-anchor="middle" x="540.1133" y="-119.8" font-family="Times,serif" font-size="14.00" fill="#000000">F</text>
</g>
<!-- 140423419255216 -->
<g id="node23" class="node">
<title>140423419255216</title>
<ellipse fill="none" stroke="#000000" stroke-width="2" cx="540.1133" cy="-388" rx="91.4341" ry="91.4341"/>
<text text-anchor="middle" x="540.1133" y="-391.8" font-family="Times,serif" font-size="14.00" fill="#000000">T &#45;&gt; T.*F, {*, $, +}</text>
<text text-anchor="middle" x="540.1133" y="-376.8" font-family="Times,serif" font-size="14.00" fill="#000000">E &#45;&gt; T., {$, +}</text>
</g>
<!-- 140423419253480&#45;&gt;140423419255216 -->
<g id="edge37" class="edge">
<title>140423419253480&#45;&gt;140423419255216</title>
<path fill="none" stroke="#000000" d="M200.8702,-308.851C220.8115,-322.2538 243.1406,-335.1881 265.4335,-344 320.3919,-365.7238 385.5675,-376.733 438.6367,-382.3071"/>
<polygon fill="#000000" stroke="#000000" points="438.4418,-385.805 448.7407,-383.3186 439.1391,-378.8398 438.4418,-385.805"/>
<text text-anchor="middle" x="242.9335" y="-337.8" font-family="Times,serif" font-size="14.00" fill="#000000">T</text>
</g>
<!-- 140423419255496 -->
<g id="node4" class="node">
<title>140423419255496</title>
<ellipse fill="none" stroke="#000000" stroke-width="2" cx="1652.0384" cy="-523" rx="89.6056" ry="89.6056"/>
<text text-anchor="middle" x="1652.0384" y="-564.3" font-family="Times,serif" font-size="14.00" fill="#000000">F &#45;&gt; (.E), {*, +, )}</text>
<text text-anchor="middle" x="1652.0384" y="-549.3" font-family="Times,serif" font-size="14.00" fill="#000000">T &#45;&gt; .F, {*, +, )}</text>
<text text-anchor="middle" x="1652.0384" y="-534.3" font-family="Times,serif" font-size="14.00" fill="#000000">F &#45;&gt; .(E), {*, +, )}</text>
<text text-anchor="middle" x="1652.0384" y="-519.3" font-family="Times,serif" font-size="14.00" fill="#000000">E &#45;&gt; .E+T, {+, )}</text>
<text text-anchor="middle" x="1652.0384" y="-504.3" font-family="Times,serif" font-size="14.00" fill="#000000">F &#45;&gt; .id, {*, +, )}</text>
<text text-anchor="middle" x="1652.0384" y="-489.3" font-family="Times,serif" font-size="14.00" fill="#000000">T &#45;&gt; .T*F, {*, +, )}</text>
<text text-anchor="middle" x="1652.0384" y="-474.3" font-family="Times,serif" font-size="14.00" fill="#000000">E &#45;&gt; .T, {+, )}</text>
</g>
<!-- 140423419254992&#45;&gt;140423419255496 -->
<g id="edge17" class="edge">
<title>140423419254992&#45;&gt;140423419255496</title>
<path fill="none" stroke="#000000" d="M1517.4946,-523C1528.8219,-523 1540.4636,-523 1551.9336,-523"/>
<polygon fill="#000000" stroke="#000000" points="1551.9569,-526.5001 1561.9569,-523 1551.9569,-519.5001 1551.9569,-526.5001"/>
<text text-anchor="middle" x="1539.7359" y="-526.8" font-family="Times,serif" font-size="14.00" fill="#000000">(</text>
</g>
<!-- 140423419255552 -->
<g id="node5" class="node">
<title>140423419255552</title>
<ellipse fill="none" stroke="#000000" stroke-width="2" cx="2773.8041" cy="-428" rx="74.187" ry="74.187"/>
<text text-anchor="middle" x="2773.8041" y="-424.3" font-family="Times,serif" font-size="14.00" fill="#000000">F &#45;&gt; id., {*, +, )}</text>
</g>
<!-- 140423419254992&#45;&gt;140423419255552 -->
<g id="edge18" class="edge">
<title>140423419254992&#45;&gt;140423419255552</title>
<path fill="none" stroke="#000000" d="M1449.8013,-610.0444C1479.306,-702.0492 1540.9802,-834 1652.0384,-834 1652.0384,-834 1652.0384,-834 2554.4589,-834 2622.5046,-834 2612.4008,-770.1259 2644.2615,-710 2661.9695,-676.5822 2663.7486,-666.6036 2673.2615,-630 2685.8326,-581.6291 2669.5799,-564.0298 2691.2615,-519 2696.7376,-507.6269 2704.0929,-496.649 2712.166,-486.4914"/>
<polygon fill="#000000" stroke="#000000" points="2715.0804,-488.46 2718.7721,-478.5291 2709.6932,-483.9903 2715.0804,-488.46"/>
<text text-anchor="middle" x="2101.2487" y="-837.8" font-family="Times,serif" font-size="14.00" fill="#000000">id</text>
</g>
<!-- 140423927054464 -->
<g id="node11" class="node">
<title>140423927054464</title>
<ellipse fill="none" stroke="#000000" stroke-width="2" cx="2327.8538" cy="-149" rx="72.5877" ry="72.5877"/>
<text text-anchor="middle" x="2327.8538" y="-145.3" font-family="Times,serif" font-size="14.00" fill="#000000">T &#45;&gt; F., {*, +, )}</text>
</g>
<!-- 140423419254992&#45;&gt;140423927054464 -->
<g id="edge23" class="edge">
<title>140423419254992&#45;&gt;140423927054464</title>
<path fill="none" stroke="#000000" d="M1492.8366,-461.1354C1502.221,-449.5818 1510.8443,-437.0189 1517.2359,-424 1604.3786,-246.4981 1454.2992,0 1652.0384,0 1652.0384,0 1652.0384,0 2101.2487,0 2168.2346,0 2230.7533,-46.0183 2273.0817,-86.9064"/>
<polygon fill="#000000" stroke="#000000" points="2270.6422,-89.4163 2280.2221,-93.9412 2275.5549,-84.4298 2270.6422,-89.4163"/>
<text text-anchor="middle" x="1876.6435" y="-3.8" font-family="Times,serif" font-size="14.00" fill="#000000">F</text>
</g>
<!-- 140423419254488 -->
<g id="node13" class="node">
<title>140423419254488</title>
<ellipse fill="none" stroke="#000000" stroke-width="2" cx="1876.6435" cy="-716" rx="89.6056" ry="89.6056"/>
<text text-anchor="middle" x="1876.6435" y="-719.8" font-family="Times,serif" font-size="14.00" fill="#000000">E &#45;&gt; T., {+, )}</text>
<text text-anchor="middle" x="1876.6435" y="-704.8" font-family="Times,serif" font-size="14.00" fill="#000000">T &#45;&gt; T.*F, {*, +, )}</text>
</g>
<!-- 140423419254992&#45;&gt;140423419254488 -->
<g id="edge22" class="edge">
<title>140423419254992&#45;&gt;140423419254488</title>
<path fill="none" stroke="#000000" d="M1483.957,-593.0109C1506.049,-616.0737 1533.0869,-639.7036 1562.2359,-655 1628.5993,-689.8254 1712.2405,-704.8889 1776.5678,-711.3461"/>
<polygon fill="#000000" stroke="#000000" points="1776.4344,-714.8491 1786.7205,-712.3103 1777.0962,-707.8805 1776.4344,-714.8491"/>
<text text-anchor="middle" x="1652.0384" y="-710.8" font-family="Times,serif" font-size="14.00" fill="#000000">T</text>
</g>
<!-- 140423419253704 -->
<g id="node14" class="node">
<title>140423419253704</title>
<ellipse fill="none" stroke="#000000" stroke-width="2" cx="1652.0384" cy="-267" rx="86.9483" ry="86.9483"/>
<text text-anchor="middle" x="1652.0384" y="-270.8" font-family="Times,serif" font-size="14.00" fill="#000000">E &#45;&gt; E.+T, {+, )}</text>
<text text-anchor="middle" x="1652.0384" y="-255.8" font-family="Times,serif" font-size="14.00" fill="#000000">F &#45;&gt; (E.), {*, $, +}</text>
</g>
<!-- 140423419254992&#45;&gt;140423419253704 -->
<g id="edge21" class="edge">
<title>140423419254992&#45;&gt;140423419253704</title>
<path fill="none" stroke="#000000" d="M1488.0654,-456.6577C1497.8676,-445.7892 1507.8692,-434.613 1517.2359,-424 1540.9279,-397.1554 1566.6036,-367.4176 1589.1276,-341.1078"/>
<polygon fill="#000000" stroke="#000000" points="1591.8606,-343.2972 1595.7008,-333.4228 1586.541,-338.7473 1591.8606,-343.2972"/>
<text text-anchor="middle" x="1539.7359" y="-405.8" font-family="Times,serif" font-size="14.00" fill="#000000">E</text>
</g>
<!-- 140423419255496&#45;&gt;140423419255496 -->
<g id="edge1" class="edge">
<title>140423419255496&#45;&gt;140423419255496</title>
<path fill="none" stroke="#000000" d="M1633.4084,-610.9793C1636.5315,-622.8795 1642.7415,-630.8026 1652.0384,-630.8026 1658.5753,-630.8026 1663.5861,-626.8855 1667.0707,-620.4231"/>
<polygon fill="#000000" stroke="#000000" points="1670.3791,-621.5702 1670.6685,-610.9793 1663.8377,-619.0781 1670.3791,-621.5702"/>
<text text-anchor="middle" x="1652.0384" y="-634.6026" font-family="Times,serif" font-size="14.00" fill="#000000">(</text>
</g>
<!-- 140423419255496&#45;&gt;140423419255552 -->
<g id="edge2" class="edge">
<title>140423419255496&#45;&gt;140423419255552</title>
<path fill="none" stroke="#000000" d="M1740.7827,-538.3433C1874.7364,-559.479 2120.4527,-589.7405 2191.0512,-541 2239.5523,-507.5153 2189.5501,-450.4847 2238.0512,-417 2303.7412,-371.6483 2337.8414,-415.7677 2417.6563,-417 2510.5088,-418.4336 2616.9296,-421.9683 2689.0776,-424.6471"/>
<polygon fill="#000000" stroke="#000000" points="2689.3442,-428.1594 2699.4681,-425.0357 2689.6059,-421.1643 2689.3442,-428.1594"/>
<text text-anchor="middle" x="2214.5512" y="-523.8" font-family="Times,serif" font-size="14.00" fill="#000000">id</text>
</g>
<!-- 140423460678792 -->
<g id="node6" class="node">
<title>140423460678792</title>
<ellipse fill="none" stroke="#000000" stroke-width="2" cx="1876.6435" cy="-446" rx="85.6199" ry="85.6199"/>
<text text-anchor="middle" x="1876.6435" y="-449.8" font-family="Times,serif" font-size="14.00" fill="#000000">E &#45;&gt; E.+T, {+, )}</text>
<text text-anchor="middle" x="1876.6435" y="-434.8" font-family="Times,serif" font-size="14.00" fill="#000000">F &#45;&gt; (E.), {*, +, )}</text>
</g>
<!-- 140423419255496&#45;&gt;140423460678792 -->
<g id="edge13" class="edge">
<title>140423419255496&#45;&gt;140423460678792</title>
<path fill="none" stroke="#000000" d="M1737.2722,-493.7798C1753.0988,-488.3541 1769.6881,-482.6669 1785.6783,-477.1851"/>
<polygon fill="#000000" stroke="#000000" points="1787.2203,-480.3565 1795.5448,-473.8026 1784.9502,-473.7348 1787.2203,-480.3565"/>
<text text-anchor="middle" x="1764.341" y="-487.8" font-family="Times,serif" font-size="14.00" fill="#000000">E</text>
</g>
<!-- 140423419255496&#45;&gt;140423927054464 -->
<g id="edge16" class="edge">
<title>140423419255496&#45;&gt;140423927054464</title>
<path fill="none" stroke="#000000" d="M1697.5184,-445.2147C1712.1655,-419.3237 1728.1412,-390.1611 1741.841,-363 1763.7896,-319.4848 1750.7739,-295.7791 1786.841,-263 1849.2279,-206.3004 1891.9533,-241.4688 1966.4461,-202 1988.596,-190.2642 1987.9293,-176.678 2011.4461,-168 2087.0381,-140.1055 2179.664,-137.9038 2245.1116,-141.1302"/>
<polygon fill="#000000" stroke="#000000" points="2245.1992,-144.6401 2255.3755,-141.6915 2245.5815,-137.6505 2245.1992,-144.6401"/>
<text text-anchor="middle" x="1988.9461" y="-192.8" font-family="Times,serif" font-size="14.00" fill="#000000">F</text>
</g>
<!-- 140423419255496&#45;&gt;140423419254488 -->
<g id="edge15" class="edge">
<title>140423419255496&#45;&gt;140423419254488</title>
<path fill="none" stroke="#000000" d="M1720.3422,-581.6924C1745.7151,-603.495 1774.6472,-628.356 1800.6645,-650.7123"/>
<polygon fill="#000000" stroke="#000000" points="1798.4121,-653.3915 1808.2777,-657.2542 1802.9742,-648.0823 1798.4121,-653.3915"/>
<text text-anchor="middle" x="1764.341" y="-622.8" font-family="Times,serif" font-size="14.00" fill="#000000">T</text>
</g>
<!-- 140423927055808 -->
<g id="node7" class="node">
<title>140423927055808</title>
<ellipse fill="none" stroke="#000000" stroke-width="2" cx="2101.2487" cy="-267" rx="89.6056" ry="89.6056"/>
<text text-anchor="middle" x="2101.2487" y="-293.3" font-family="Times,serif" font-size="14.00" fill="#000000">T &#45;&gt; .F, {*, +, )}</text>
<text text-anchor="middle" x="2101.2487" y="-278.3" font-family="Times,serif" font-size="14.00" fill="#000000">E &#45;&gt; E+.T, {+, )}</text>
<text text-anchor="middle" x="2101.2487" y="-263.3" font-family="Times,serif" font-size="14.00" fill="#000000">F &#45;&gt; .(E), {*, +, )}</text>
<text text-anchor="middle" x="2101.2487" y="-248.3" font-family="Times,serif" font-size="14.00" fill="#000000">F &#45;&gt; .id, {*, +, )}</text>
<text text-anchor="middle" x="2101.2487" y="-233.3" font-family="Times,serif" font-size="14.00" fill="#000000">T &#45;&gt; .T*F, {*, +, )}</text>
</g>
<!-- 140423460678792&#45;&gt;140423927055808 -->
<g id="edge11" class="edge">
<title>140423460678792&#45;&gt;140423927055808</title>
<path fill="none" stroke="#000000" d="M1943.7282,-392.5366C1968.6804,-372.6509 1997.2078,-349.9158 2023.068,-329.3064"/>
<polygon fill="#000000" stroke="#000000" points="2025.362,-331.9538 2031.001,-322.9842 2020.9993,-326.4795 2025.362,-331.9538"/>
<text text-anchor="middle" x="1988.9461" y="-359.8" font-family="Times,serif" font-size="14.00" fill="#000000">+</text>
</g>
<!-- 140423927058160 -->
<g id="node12" class="node">
<title>140423927058160</title>
<ellipse fill="none" stroke="#000000" stroke-width="2" cx="2101.2487" cy="-453" rx="78.7863" ry="78.7863"/>
<text text-anchor="middle" x="2101.2487" y="-449.3" font-family="Times,serif" font-size="14.00" fill="#000000">F &#45;&gt; (E)., {*, +, )}</text>
</g>
<!-- 140423460678792&#45;&gt;140423927058160 -->
<g id="edge12" class="edge">
<title>140423460678792&#45;&gt;140423927058160</title>
<path fill="none" stroke="#000000" d="M1962.1978,-448.6664C1978.624,-449.1783 1995.8609,-449.7155 2012.3887,-450.2306"/>
<polygon fill="#000000" stroke="#000000" points="2012.4702,-453.7348 2022.5744,-450.5481 2012.6883,-446.7381 2012.4702,-453.7348"/>
<text text-anchor="middle" x="1988.9461" y="-452.8" font-family="Times,serif" font-size="14.00" fill="#000000">)</text>
</g>
<!-- 140423927055808&#45;&gt;140423419255496 -->
<g id="edge3" class="edge">
<title>140423927055808&#45;&gt;140423419255496</title>
<path fill="none" stroke="#000000" d="M2012.2456,-279.2888C1932.7546,-291.5527 1823.3918,-311.9946 1786.841,-336 1749.9891,-360.2031 1719.891,-398.2048 1697.5583,-433.6472"/>
<polygon fill="#000000" stroke="#000000" points="1694.3127,-432.2428 1692.0484,-442.5929 1700.2728,-435.9139 1694.3127,-432.2428"/>
<text text-anchor="middle" x="1876.6435" y="-339.8" font-family="Times,serif" font-size="14.00" fill="#000000">(</text>
</g>
<!-- 140423927055808&#45;&gt;140423419255552 -->
<g id="edge4" class="edge">
<title>140423927055808&#45;&gt;140423419255552</title>
<path fill="none" stroke="#000000" d="M2190.4263,-279.2762C2304.2312,-296.2911 2506.3498,-331.0601 2673.2615,-384 2681.1591,-386.5049 2689.2747,-389.4284 2697.3062,-392.5559"/>
<polygon fill="#000000" stroke="#000000" points="2696.0935,-395.8404 2706.678,-396.3083 2698.6954,-389.3419 2696.0935,-395.8404"/>
<text text-anchor="middle" x="2441.1563" y="-328.8" font-family="Times,serif" font-size="14.00" fill="#000000">id</text>
</g>
<!-- 140423927056368 -->
<g id="node8" class="node">
<title>140423927056368</title>
<ellipse fill="none" stroke="#000000" stroke-width="2" cx="2327.8538" cy="-516" rx="89.6056" ry="89.6056"/>
<text text-anchor="middle" x="2327.8538" y="-519.8" font-family="Times,serif" font-size="14.00" fill="#000000">E &#45;&gt; E+T., {+, )}</text>
<text text-anchor="middle" x="2327.8538" y="-504.8" font-family="Times,serif" font-size="14.00" fill="#000000">T &#45;&gt; T.*F, {*, +, )}</text>
</g>
<!-- 140423927055808&#45;&gt;140423927056368 -->
<g id="edge9" class="edge">
<title>140423927055808&#45;&gt;140423927056368</title>
<path fill="none" stroke="#000000" d="M2162.1653,-333.3752C2171.8386,-343.9447 2181.7258,-354.7652 2191.0512,-365 2213.7219,-389.8813 2238.4402,-417.1284 2260.5516,-441.5448"/>
<polygon fill="#000000" stroke="#000000" points="2258.0185,-443.9619 2267.3249,-449.0257 2263.2076,-439.2636 2258.0185,-443.9619"/>
<text text-anchor="middle" x="2214.5512" y="-396.8" font-family="Times,serif" font-size="14.00" fill="#000000">T</text>
</g>
<!-- 140423927055808&#45;&gt;140423927054464 -->
<g id="edge10" class="edge">
<title>140423927055808&#45;&gt;140423927054464</title>
<path fill="none" stroke="#000000" d="M2181.1412,-225.3976C2204.8768,-213.0377 2230.7608,-199.5592 2254.0882,-187.4119"/>
<polygon fill="#000000" stroke="#000000" points="2255.9788,-190.3736 2263.2318,-182.6506 2252.7457,-184.1649 2255.9788,-190.3736"/>
<text text-anchor="middle" x="2214.5512" y="-211.8" font-family="Times,serif" font-size="14.00" fill="#000000">F</text>
</g>
<!-- 140423927057096 -->
<g id="node9" class="node">
<title>140423927057096</title>
<ellipse fill="none" stroke="#000000" stroke-width="2" cx="2554.4589" cy="-611" rx="89.6056" ry="89.6056"/>
<text text-anchor="middle" x="2554.4589" y="-622.3" font-family="Times,serif" font-size="14.00" fill="#000000">F &#45;&gt; .(E), {*, +, )}</text>
<text text-anchor="middle" x="2554.4589" y="-607.3" font-family="Times,serif" font-size="14.00" fill="#000000">T &#45;&gt; T*.F, {*, +, )}</text>
<text text-anchor="middle" x="2554.4589" y="-592.3" font-family="Times,serif" font-size="14.00" fill="#000000">F &#45;&gt; .id, {*, +, )}</text>
</g>
<!-- 140423927056368&#45;&gt;140423927057096 -->
<g id="edge8" class="edge">
<title>140423927056368&#45;&gt;140423927057096</title>
<path fill="none" stroke="#000000" d="M2410.9464,-550.8351C2427.5726,-557.8053 2445.135,-565.168 2462.0534,-572.2607"/>
<polygon fill="#000000" stroke="#000000" points="2460.8007,-575.5306 2471.3763,-576.1692 2463.5072,-569.075 2460.8007,-575.5306"/>
<text text-anchor="middle" x="2441.1563" y="-566.8" font-family="Times,serif" font-size="14.00" fill="#000000">*</text>
</g>
<!-- 140423927057096&#45;&gt;140423419255496 -->
<g id="edge5" class="edge">
<title>140423927057096&#45;&gt;140423419255496</title>
<path fill="none" stroke="#000000" d="M2464.6904,-614C2449.0142,-614.4166 2432.8615,-614.7778 2417.6563,-615 2124.7579,-619.2811 2042.6442,-650.3553 1759.841,-574 1753.7413,-572.3531 1747.564,-570.3742 1741.4143,-568.1658"/>
<polygon fill="#000000" stroke="#000000" points="1742.3798,-564.7889 1731.7884,-564.5213 1739.9012,-571.3354 1742.3798,-564.7889"/>
<text text-anchor="middle" x="2101.2487" y="-627.8" font-family="Times,serif" font-size="14.00" fill="#000000">(</text>
</g>
<!-- 140423927057096&#45;&gt;140423419255552 -->
<g id="edge6" class="edge">
<title>140423927057096&#45;&gt;140423419255552</title>
<path fill="none" stroke="#000000" d="M2623.56,-553.3488C2650.876,-530.5591 2682.1009,-504.5081 2708.9826,-482.0807"/>
<polygon fill="#000000" stroke="#000000" points="2711.3719,-484.6454 2716.8083,-475.5517 2706.8876,-479.2704 2711.3719,-484.6454"/>
<text text-anchor="middle" x="2667.7615" y="-522.8" font-family="Times,serif" font-size="14.00" fill="#000000">id</text>
</g>
<!-- 140423927056872 -->
<g id="node10" class="node">
<title>140423927056872</title>
<ellipse fill="none" stroke="#000000" stroke-width="2" cx="2773.8041" cy="-611" rx="82.5854" ry="82.5854"/>
<text text-anchor="middle" x="2773.8041" y="-607.3" font-family="Times,serif" font-size="14.00" fill="#000000">T &#45;&gt; T*F., {*, +, )}</text>
</g>
<!-- 140423927057096&#45;&gt;140423927056872 -->
<g id="edge7" class="edge">
<title>140423927057096&#45;&gt;140423927056872</title>
<path fill="none" stroke="#000000" d="M2644.3079,-611C2656.4163,-611 2668.8581,-611 2681.0163,-611"/>
<polygon fill="#000000" stroke="#000000" points="2681.149,-614.5001 2691.149,-611 2681.1489,-607.5001 2681.149,-614.5001"/>
<text text-anchor="middle" x="2667.7615" y="-614.8" font-family="Times,serif" font-size="14.00" fill="#000000">F</text>
</g>
<!-- 140423419254488&#45;&gt;140423927057096 -->
<g id="edge14" class="edge">
<title>140423419254488&#45;&gt;140423927057096</title>
<path fill="none" stroke="#000000" d="M1966.5054,-711.1763C2079.6771,-703.7591 2279.5458,-686.1909 2446.6563,-648 2451.0614,-646.9933 2455.5384,-645.8718 2460.0394,-644.6639"/>
<polygon fill="#000000" stroke="#000000" points="2461.2305,-647.9649 2469.9127,-641.8929 2459.339,-641.2253 2461.2305,-647.9649"/>
<text text-anchor="middle" x="2214.5512" y="-690.8" font-family="Times,serif" font-size="14.00" fill="#000000">*</text>
</g>
<!-- 140423419253704&#45;&gt;140423927055808 -->
<g id="edge19" class="edge">
<title>140423419253704&#45;&gt;140423927055808</title>
<path fill="none" stroke="#000000" d="M1739.1833,-267C1814.1463,-267 1922.3024,-267 2000.8711,-267"/>
<polygon fill="#000000" stroke="#000000" points="2001.2692,-270.5001 2011.2692,-267 2001.2692,-263.5001 2001.2692,-270.5001"/>
<text text-anchor="middle" x="1876.6435" y="-270.8" font-family="Times,serif" font-size="14.00" fill="#000000">+</text>
</g>
<!-- 140423927056312 -->
<g id="node15" class="node">
<title>140423927056312</title>
<ellipse fill="none" stroke="#000000" stroke-width="2" cx="1876.6435" cy="-113" rx="79.8859" ry="79.8859"/>
<text text-anchor="middle" x="1876.6435" y="-109.3" font-family="Times,serif" font-size="14.00" fill="#000000">F &#45;&gt; (E)., {*, $, +}</text>
</g>
<!-- 140423419253704&#45;&gt;140423927056312 -->
<g id="edge20" class="edge">
<title>140423419253704&#45;&gt;140423927056312</title>
<path fill="none" stroke="#000000" d="M1724.0317,-217.638C1748.9323,-200.5649 1776.8815,-181.4016 1801.9909,-164.1854"/>
<polygon fill="#000000" stroke="#000000" points="1804.1206,-166.9689 1810.3889,-158.4273 1800.1621,-161.1956 1804.1206,-166.9689"/>
<text text-anchor="middle" x="1764.341" y="-193.8" font-family="Times,serif" font-size="14.00" fill="#000000">)</text>
</g>
<!-- 140423419254600 -->
<g id="node18" class="node">
<title>140423419254600</title>
<ellipse fill="none" stroke="#000000" stroke-width="2" cx="740.5469" cy="-252" rx="91.4341" ry="91.4341"/>
<text text-anchor="middle" x="740.5469" y="-278.3" font-family="Times,serif" font-size="14.00" fill="#000000">T &#45;&gt; .T*F, {*, $, +}</text>
<text text-anchor="middle" x="740.5469" y="-263.3" font-family="Times,serif" font-size="14.00" fill="#000000">F &#45;&gt; .id, {*, $, +}</text>
<text text-anchor="middle" x="740.5469" y="-248.3" font-family="Times,serif" font-size="14.00" fill="#000000">F &#45;&gt; .(E), {*, $, +}</text>
<text text-anchor="middle" x="740.5469" y="-233.3" font-family="Times,serif" font-size="14.00" fill="#000000">E &#45;&gt; E+.T, {$, +}</text>
<text text-anchor="middle" x="740.5469" y="-218.3" font-family="Times,serif" font-size="14.00" fill="#000000">T &#45;&gt; .F, {*, $, +}</text>
</g>
<!-- 140423419255720&#45;&gt;140423419254600 -->
<g id="edge34" class="edge">
<title>140423419255720&#45;&gt;140423419254600</title>
<path fill="none" stroke="#000000" d="M430.8997,-252C491.5128,-252 574.1393,-252 638.7948,-252"/>
<polygon fill="#000000" stroke="#000000" points="639.0112,-255.5001 649.0112,-252 639.0111,-248.5001 639.0112,-255.5001"/>
<text text-anchor="middle" x="540.1133" y="-255.8" font-family="Times,serif" font-size="14.00" fill="#000000">+</text>
</g>
<!-- 140423419254600&#45;&gt;140423419254992 -->
<g id="edge26" class="edge">
<title>140423419254600&#45;&gt;140423419254992</title>
<path fill="none" stroke="#000000" d="M784.515,-332.0899C807.9251,-367.2786 839.9434,-405.7961 878.7636,-429 916.7241,-451.6901 1180.9064,-489.9899 1328.3986,-509.9768"/>
<polygon fill="#000000" stroke="#000000" points="1327.9978,-513.4544 1338.3764,-511.3251 1328.9352,-506.5174 1327.9978,-513.4544"/>
<text text-anchor="middle" x="1084.6972" y="-477.8" font-family="Times,serif" font-size="14.00" fill="#000000">(</text>
</g>
<!-- 140423419254600&#45;&gt;140423419254208 -->
<g id="edge27" class="edge">
<title>140423419254600&#45;&gt;140423419254208</title>
<path fill="none" stroke="#000000" d="M830.8205,-236.5903C846.7804,-233.9766 863.2505,-231.3505 878.7636,-229 1042.4457,-204.1994 1234.1713,-178.8293 1342.1576,-164.8767"/>
<polygon fill="#000000" stroke="#000000" points="1342.8728,-168.3135 1352.3427,-163.5625 1341.977,-161.371 1342.8728,-168.3135"/>
<text text-anchor="middle" x="1084.6972" y="-203.8" font-family="Times,serif" font-size="14.00" fill="#000000">id</text>
</g>
<!-- 140423419253760 -->
<g id="node19" class="node">
<title>140423419253760</title>
<ellipse fill="none" stroke="#000000" stroke-width="2" cx="969.9804" cy="-329" rx="91.4341" ry="91.4341"/>
<text text-anchor="middle" x="969.9804" y="-332.8" font-family="Times,serif" font-size="14.00" fill="#000000">T &#45;&gt; T.*F, {*, $, +}</text>
<text text-anchor="middle" x="969.9804" y="-317.8" font-family="Times,serif" font-size="14.00" fill="#000000">E &#45;&gt; E+T., {$, +}</text>
</g>
<!-- 140423419254600&#45;&gt;140423419253760 -->
<g id="edge32" class="edge">
<title>140423419254600&#45;&gt;140423419253760</title>
<path fill="none" stroke="#000000" d="M827.2858,-281.1104C842.5235,-286.2243 858.4625,-291.5736 873.9357,-296.7665"/>
<polygon fill="#000000" stroke="#000000" points="872.9054,-300.1125 883.4994,-299.9762 875.1327,-293.4763 872.9054,-300.1125"/>
<text text-anchor="middle" x="855.2636" y="-293.8" font-family="Times,serif" font-size="14.00" fill="#000000">T</text>
</g>
<!-- 140423419254600&#45;&gt;140423419256112 -->
<g id="edge33" class="edge">
<title>140423419254600&#45;&gt;140423419256112</title>
<path fill="none" stroke="#000000" d="M817.033,-201.8546C827.9837,-194.7987 839.1363,-187.6788 849.7636,-181 865.114,-171.353 881.6729,-161.1611 897.448,-151.5518"/>
<polygon fill="#000000" stroke="#000000" points="899.3921,-154.4661 906.1187,-146.2805 895.7556,-148.4847 899.3921,-154.4661"/>
<text text-anchor="middle" x="855.2636" y="-184.8" font-family="Times,serif" font-size="14.00" fill="#000000">F</text>
</g>
<!-- 140423419256616 -->
<g id="node20" class="node">
<title>140423419256616</title>
<ellipse fill="none" stroke="#000000" stroke-width="2" cx="1199.414" cy="-331" rx="91.4341" ry="91.4341"/>
<text text-anchor="middle" x="1199.414" y="-342.3" font-family="Times,serif" font-size="14.00" fill="#000000">F &#45;&gt; .id, {*, $, +}</text>
<text text-anchor="middle" x="1199.414" y="-327.3" font-family="Times,serif" font-size="14.00" fill="#000000">F &#45;&gt; .(E), {*, $, +}</text>
<text text-anchor="middle" x="1199.414" y="-312.3" font-family="Times,serif" font-size="14.00" fill="#000000">T &#45;&gt; T*.F, {*, $, +}</text>
</g>
<!-- 140423419253760&#45;&gt;140423419256616 -->
<g id="edge31" class="edge">
<title>140423419253760&#45;&gt;140423419256616</title>
<path fill="none" stroke="#000000" d="M1061.3179,-329.7962C1073.3261,-329.9009 1085.6913,-330.0087 1097.8565,-330.1147"/>
<polygon fill="#000000" stroke="#000000" points="1097.9858,-333.6159 1108.016,-330.2033 1098.0469,-326.6161 1097.9858,-333.6159"/>
<text text-anchor="middle" x="1084.6972" y="-333.8" font-family="Times,serif" font-size="14.00" fill="#000000">*</text>
</g>
<!-- 140423419256616&#45;&gt;140423419254992 -->
<g id="edge28" class="edge">
<title>140423419256616&#45;&gt;140423419254992</title>
<path fill="none" stroke="#000000" d="M1269.3769,-389.9111C1295.1135,-411.5823 1324.3888,-436.2331 1350.6908,-458.3803"/>
<polygon fill="#000000" stroke="#000000" points="1348.4829,-461.0966 1358.3867,-464.8604 1352.9916,-455.742 1348.4829,-461.0966"/>
<text text-anchor="middle" x="1314.1307" y="-430.8" font-family="Times,serif" font-size="14.00" fill="#000000">(</text>
</g>
<!-- 140423419256616&#45;&gt;140423419254208 -->
<g id="edge29" class="edge">
<title>140423419256616&#45;&gt;140423419254208</title>
<path fill="none" stroke="#000000" d="M1271.5607,-274.9961C1299.7048,-253.1492 1331.8013,-228.2343 1359.5244,-206.7143"/>
<polygon fill="#000000" stroke="#000000" points="1361.8452,-209.3435 1367.5984,-200.4468 1357.5528,-203.814 1361.8452,-209.3435"/>
<text text-anchor="middle" x="1314.1307" y="-246.8" font-family="Times,serif" font-size="14.00" fill="#000000">id</text>
</g>
<!-- 140423419255832 -->
<g id="node21" class="node">
<title>140423419255832</title>
<ellipse fill="none" stroke="#000000" stroke-width="2" cx="1427.4333" cy="-331" rx="83.6854" ry="83.6854"/>
<text text-anchor="middle" x="1427.4333" y="-327.3" font-family="Times,serif" font-size="14.00" fill="#000000">T &#45;&gt; T*F., {*, $, +}</text>
</g>
<!-- 140423419256616&#45;&gt;140423419255832 -->
<g id="edge30" class="edge">
<title>140423419256616&#45;&gt;140423419255832</title>
<path fill="none" stroke="#000000" d="M1290.8443,-331C1304.8024,-331 1319.2309,-331 1333.2469,-331"/>
<polygon fill="#000000" stroke="#000000" points="1333.3673,-334.5001 1343.3673,-331 1333.3673,-327.5001 1333.3673,-334.5001"/>
<text text-anchor="middle" x="1314.1307" y="-334.8" font-family="Times,serif" font-size="14.00" fill="#000000">F</text>
</g>
<!-- 140423419255216&#45;&gt;140423419256616 -->
<g id="edge36" class="edge">
<title>140423419255216&#45;&gt;140423419256616</title>
<path fill="none" stroke="#000000" d="M627.7222,-414.7471C733.1851,-442.477 914.4233,-475.7538 1061.1972,-429 1082.8045,-422.1172 1103.9323,-410.4926 1122.9101,-397.6062"/>
<polygon fill="#000000" stroke="#000000" points="1125.0016,-400.4146 1131.1885,-391.8138 1120.9884,-394.6791 1125.0016,-400.4146"/>
<text text-anchor="middle" x="855.2636" y="-454.8" font-family="Times,serif" font-size="14.00" fill="#000000">*</text>
</g>
</g>
</svg>
