<?xml version="1.0" encoding="UTF-8" standalone="no"?>
<!DOCTYPE svg PUBLIC "-//W3C//DTD SVG 1.1//EN"
 "http://www.w3.org/Graphics/SVG/1.1/DTD/svg11.dtd">
<!-- Generated by graphviz version 2.40.1 (20161225.0304)
 -->
<!-- Title: G Pages: 1 -->
<svg width="206pt" height="404pt"
 viewBox="0.00 0.00 206.00 404.00" xmlns="http://www.w3.org/2000/svg" xmlns:xlink="http://www.w3.org/1999/xlink">
<g id="graph0" class="graph" transform="scale(1 1) rotate(0) translate(4 400)">
<title>G</title>
<polygon fill="#ffffff" stroke="transparent" points="-4,4 -4,-400 202,-400 202,4 -4,4"/>
<!-- 6a5d5b6cdc8d490fab30170251c41dde -->
<g id="node1" class="node">
<title>6a5d5b6cdc8d490fab30170251c41dde</title>
<ellipse fill="#ffffff" stroke="#000000" cx="45" cy="-378" rx="18" ry="18"/>
<text text-anchor="middle" x="45" y="-374.3" font-family="Times,serif" font-size="14.00" fill="#000000">S</text>
</g>
<!-- 61d17f0fc9904c87bacd1885986141b4 -->
<g id="node2" class="node">
<title>61d17f0fc9904c87bacd1885986141b4</title>
<ellipse fill="#ffffff" stroke="#000000" cx="18" cy="-306" rx="18" ry="18"/>
<text text-anchor="middle" x="18" y="-302.3" font-family="Times,serif" font-size="14.00" fill="#000000">A</text>
</g>
<!-- 6a5d5b6cdc8d490fab30170251c41dde&#45;&gt;61d17f0fc9904c87bacd1885986141b4 -->
<g id="edge2" class="edge">
<title>6a5d5b6cdc8d490fab30170251c41dde&#45;&gt;61d17f0fc9904c87bacd1885986141b4</title>
<path fill="none" stroke="#000000" d="M38.6014,-360.937C35.407,-352.4186 31.471,-341.9227 27.8982,-332.3952"/>
<polygon fill="#000000" stroke="#000000" points="31.1411,-331.0749 24.3527,-322.9405 24.5868,-333.5328 31.1411,-331.0749"/>
</g>
<!-- 40cde095c4b74afb9948bfd4bb4dc92f -->
<g id="node4" class="node">
<title>40cde095c4b74afb9948bfd4bb4dc92f</title>
<ellipse fill="#ffffff" stroke="#000000" cx="72" cy="-306" rx="18" ry="18"/>
<text text-anchor="middle" x="72" y="-302.3" font-family="Times,serif" font-size="14.00" fill="#000000">S</text>
</g>
<!-- 6a5d5b6cdc8d490fab30170251c41dde&#45;&gt;40cde095c4b74afb9948bfd4bb4dc92f -->
<g id="edge11" class="edge">
<title>6a5d5b6cdc8d490fab30170251c41dde&#45;&gt;40cde095c4b74afb9948bfd4bb4dc92f</title>
<path fill="none" stroke="#000000" d="M51.3986,-360.937C54.593,-352.4186 58.529,-341.9227 62.1018,-332.3952"/>
<polygon fill="#000000" stroke="#000000" points="65.4132,-333.5328 65.6473,-322.9405 58.8589,-331.0749 65.4132,-333.5328"/>
</g>
<!-- ea0be8aff4e641c391c308eca3463133 -->
<g id="node3" class="node">
<title>ea0be8aff4e641c391c308eca3463133</title>
<ellipse fill="#ffffff" stroke="#000000" cx="18" cy="-234" rx="18" ry="18"/>
<text text-anchor="middle" x="18" y="-230.3" font-family="Times,serif" font-size="14.00" fill="#000000">a</text>
</g>
<!-- 61d17f0fc9904c87bacd1885986141b4&#45;&gt;ea0be8aff4e641c391c308eca3463133 -->
<g id="edge1" class="edge">
<title>61d17f0fc9904c87bacd1885986141b4&#45;&gt;ea0be8aff4e641c391c308eca3463133</title>
<path fill="none" stroke="#000000" d="M18,-287.8314C18,-280.131 18,-270.9743 18,-262.4166"/>
<polygon fill="#000000" stroke="#000000" points="21.5001,-262.4132 18,-252.4133 14.5001,-262.4133 21.5001,-262.4132"/>
</g>
<!-- cb906f5c71be4c7aa6ae7539903fc817 -->
<g id="node5" class="node">
<title>cb906f5c71be4c7aa6ae7539903fc817</title>
<ellipse fill="#ffffff" stroke="#000000" cx="72" cy="-234" rx="18" ry="18"/>
<text text-anchor="middle" x="72" y="-230.3" font-family="Times,serif" font-size="14.00" fill="#000000">A</text>
</g>
<!-- 40cde095c4b74afb9948bfd4bb4dc92f&#45;&gt;cb906f5c71be4c7aa6ae7539903fc817 -->
<g id="edge4" class="edge">
<title>40cde095c4b74afb9948bfd4bb4dc92f&#45;&gt;cb906f5c71be4c7aa6ae7539903fc817</title>
<path fill="none" stroke="#000000" d="M72,-287.8314C72,-280.131 72,-270.9743 72,-262.4166"/>
<polygon fill="#000000" stroke="#000000" points="75.5001,-262.4132 72,-252.4133 68.5001,-262.4133 75.5001,-262.4132"/>
</g>
<!-- 3b6f49ac6bba40eaa8f9c9206e5cf900 -->
<g id="node7" class="node">
<title>3b6f49ac6bba40eaa8f9c9206e5cf900</title>
<ellipse fill="#ffffff" stroke="#000000" cx="126" cy="-234" rx="18" ry="18"/>
<text text-anchor="middle" x="126" y="-230.3" font-family="Times,serif" font-size="14.00" fill="#000000">S</text>
</g>
<!-- 40cde095c4b74afb9948bfd4bb4dc92f&#45;&gt;3b6f49ac6bba40eaa8f9c9206e5cf900 -->
<g id="edge10" class="edge">
<title>40cde095c4b74afb9948bfd4bb4dc92f&#45;&gt;3b6f49ac6bba40eaa8f9c9206e5cf900</title>
<path fill="none" stroke="#000000" d="M82.9277,-291.4297C90.3934,-281.4754 100.4368,-268.0842 108.9474,-256.7368"/>
<polygon fill="#000000" stroke="#000000" points="111.8885,-258.6486 115.0885,-248.5486 106.2885,-254.4486 111.8885,-258.6486"/>
</g>
<!-- 5393d7ca4d604c139d4bafcca74c1dfa -->
<g id="node6" class="node">
<title>5393d7ca4d604c139d4bafcca74c1dfa</title>
<ellipse fill="#ffffff" stroke="#000000" cx="72" cy="-162" rx="18" ry="18"/>
<text text-anchor="middle" x="72" y="-158.3" font-family="Times,serif" font-size="14.00" fill="#000000">a</text>
</g>
<!-- cb906f5c71be4c7aa6ae7539903fc817&#45;&gt;5393d7ca4d604c139d4bafcca74c1dfa -->
<g id="edge3" class="edge">
<title>cb906f5c71be4c7aa6ae7539903fc817&#45;&gt;5393d7ca4d604c139d4bafcca74c1dfa</title>
<path fill="none" stroke="#000000" d="M72,-215.8314C72,-208.131 72,-198.9743 72,-190.4166"/>
<polygon fill="#000000" stroke="#000000" points="75.5001,-190.4132 72,-180.4133 68.5001,-190.4133 75.5001,-190.4132"/>
</g>
<!-- 20f86202a6474cc29208a49c6c28d825 -->
<g id="node8" class="node">
<title>20f86202a6474cc29208a49c6c28d825</title>
<ellipse fill="#ffffff" stroke="#000000" cx="126" cy="-162" rx="18" ry="18"/>
<text text-anchor="middle" x="126" y="-158.3" font-family="Times,serif" font-size="14.00" fill="#000000">A</text>
</g>
<!-- 3b6f49ac6bba40eaa8f9c9206e5cf900&#45;&gt;20f86202a6474cc29208a49c6c28d825 -->
<g id="edge6" class="edge">
<title>3b6f49ac6bba40eaa8f9c9206e5cf900&#45;&gt;20f86202a6474cc29208a49c6c28d825</title>
<path fill="none" stroke="#000000" d="M126,-215.8314C126,-208.131 126,-198.9743 126,-190.4166"/>
<polygon fill="#000000" stroke="#000000" points="129.5001,-190.4132 126,-180.4133 122.5001,-190.4133 129.5001,-190.4132"/>
</g>
<!-- 3d06a9f93c49417882ef528c0f8ce0c9 -->
<g id="node10" class="node">
<title>3d06a9f93c49417882ef528c0f8ce0c9</title>
<ellipse fill="#ffffff" stroke="#000000" cx="180" cy="-162" rx="18" ry="18"/>
<text text-anchor="middle" x="180" y="-158.3" font-family="Times,serif" font-size="14.00" fill="#000000">S</text>
</g>
<!-- 3b6f49ac6bba40eaa8f9c9206e5cf900&#45;&gt;3d06a9f93c49417882ef528c0f8ce0c9 -->
<g id="edge9" class="edge">
<title>3b6f49ac6bba40eaa8f9c9206e5cf900&#45;&gt;3d06a9f93c49417882ef528c0f8ce0c9</title>
<path fill="none" stroke="#000000" d="M136.9277,-219.4297C144.3934,-209.4754 154.4368,-196.0842 162.9474,-184.7368"/>
<polygon fill="#000000" stroke="#000000" points="165.8885,-186.6486 169.0885,-176.5486 160.2885,-182.4486 165.8885,-186.6486"/>
</g>
<!-- 7faede5416c540efb903384d7c5f7217 -->
<g id="node9" class="node">
<title>7faede5416c540efb903384d7c5f7217</title>
<ellipse fill="#ffffff" stroke="#000000" cx="126" cy="-90" rx="18" ry="18"/>
<text text-anchor="middle" x="126" y="-86.3" font-family="Times,serif" font-size="14.00" fill="#000000">a</text>
</g>
<!-- 20f86202a6474cc29208a49c6c28d825&#45;&gt;7faede5416c540efb903384d7c5f7217 -->
<g id="edge5" class="edge">
<title>20f86202a6474cc29208a49c6c28d825&#45;&gt;7faede5416c540efb903384d7c5f7217</title>
<path fill="none" stroke="#000000" d="M126,-143.8314C126,-136.131 126,-126.9743 126,-118.4166"/>
<polygon fill="#000000" stroke="#000000" points="129.5001,-118.4132 126,-108.4133 122.5001,-118.4133 129.5001,-118.4132"/>
</g>
<!-- a4d0f33a104b43499a8bee3b6c08b464 -->
<g id="node11" class="node">
<title>a4d0f33a104b43499a8bee3b6c08b464</title>
<ellipse fill="#ffffff" stroke="#000000" cx="180" cy="-90" rx="18" ry="18"/>
<text text-anchor="middle" x="180" y="-86.3" font-family="Times,serif" font-size="14.00" fill="#000000">A</text>
</g>
<!-- 3d06a9f93c49417882ef528c0f8ce0c9&#45;&gt;a4d0f33a104b43499a8bee3b6c08b464 -->
<g id="edge8" class="edge">
<title>3d06a9f93c49417882ef528c0f8ce0c9&#45;&gt;a4d0f33a104b43499a8bee3b6c08b464</title>
<path fill="none" stroke="#000000" d="M180,-143.8314C180,-136.131 180,-126.9743 180,-118.4166"/>
<polygon fill="#000000" stroke="#000000" points="183.5001,-118.4132 180,-108.4133 176.5001,-118.4133 183.5001,-118.4132"/>
</g>
<!-- 0a5e3c69bafa4294bb2efbc3f7303f94 -->
<g id="node12" class="node">
<title>0a5e3c69bafa4294bb2efbc3f7303f94</title>
<ellipse fill="#ffffff" stroke="#000000" cx="180" cy="-18" rx="18" ry="18"/>
<text text-anchor="middle" x="180" y="-14.3" font-family="Times,serif" font-size="14.00" fill="#000000">a</text>
</g>
<!-- a4d0f33a104b43499a8bee3b6c08b464&#45;&gt;0a5e3c69bafa4294bb2efbc3f7303f94 -->
<g id="edge7" class="edge">
<title>a4d0f33a104b43499a8bee3b6c08b464&#45;&gt;0a5e3c69bafa4294bb2efbc3f7303f94</title>
<path fill="none" stroke="#000000" d="M180,-71.8314C180,-64.131 180,-54.9743 180,-46.4166"/>
<polygon fill="#000000" stroke="#000000" points="183.5001,-46.4132 180,-36.4133 176.5001,-46.4133 183.5001,-46.4132"/>
</g>
</g>
</svg>
