<?xml version="1.0" encoding="UTF-8" standalone="no"?>
<!DOCTYPE svg PUBLIC "-//W3C//DTD SVG 1.1//EN"
 "http://www.w3.org/Graphics/SVG/1.1/DTD/svg11.dtd">
<!-- Generated by graphviz version 2.40.1 (20161225.0304)
 -->
<!-- Title: G Pages: 1 -->
<svg width="337pt" height="617pt"
 viewBox="0.00 0.00 337.30 617.18" xmlns="http://www.w3.org/2000/svg" xmlns:xlink="http://www.w3.org/1999/xlink">
<g id="graph0" class="graph" transform="scale(1 1) rotate(0) translate(4 613.1811)">
<title>G</title>
<polygon fill="#ffffff" stroke="transparent" points="-4,4 -4,-613.1811 333.2953,-613.1811 333.2953,4 -4,4"/>
<!-- c991977042de4f95a879d6ede45a3133 -->
<g id="node1" class="node">
<title>c991977042de4f95a879d6ede45a3133</title>
<ellipse fill="#ffffff" stroke="#000000" cx="166.6476" cy="-591.1811" rx="18" ry="18"/>
<text text-anchor="middle" x="166.6476" y="-587.4811" font-family="Times,serif" font-size="14.00" fill="#000000">E</text>
</g>
<!-- 6dbd6b96f0ed4de7a5ce9906962ca339 -->
<g id="node2" class="node">
<title>6dbd6b96f0ed4de7a5ce9906962ca339</title>
<ellipse fill="#ffffff" stroke="#000000" cx="112.6476" cy="-519.1811" rx="18" ry="18"/>
<text text-anchor="middle" x="112.6476" y="-515.4811" font-family="Times,serif" font-size="14.00" fill="#000000">F</text>
</g>
<!-- c991977042de4f95a879d6ede45a3133&#45;&gt;6dbd6b96f0ed4de7a5ce9906962ca339 -->
<g id="edge13" class="edge">
<title>c991977042de4f95a879d6ede45a3133&#45;&gt;6dbd6b96f0ed4de7a5ce9906962ca339</title>
<path fill="none" stroke="#000000" d="M155.7199,-576.6108C148.2542,-566.6565 138.2108,-553.2653 129.7003,-541.9179"/>
<polygon fill="#000000" stroke="#000000" points="132.3591,-539.6297 123.5591,-533.7297 126.7591,-543.8297 132.3591,-539.6297"/>
</g>
<!-- 89eb076a052a4588849ffb96b1180c99 -->
<g id="node15" class="node">
<title>89eb076a052a4588849ffb96b1180c99</title>
<ellipse fill="#ffffff" stroke="#000000" cx="166.6476" cy="-519.1811" rx="18" ry="18"/>
<text text-anchor="middle" x="166.6476" y="-515.4811" font-family="Times,serif" font-size="14.00" fill="#000000">+</text>
</g>
<!-- c991977042de4f95a879d6ede45a3133&#45;&gt;89eb076a052a4588849ffb96b1180c99 -->
<g id="edge14" class="edge">
<title>c991977042de4f95a879d6ede45a3133&#45;&gt;89eb076a052a4588849ffb96b1180c99</title>
<path fill="none" stroke="#000000" d="M166.6476,-573.0124C166.6476,-565.312 166.6476,-556.1554 166.6476,-547.5977"/>
<polygon fill="#000000" stroke="#000000" points="170.1477,-547.5943 166.6476,-537.5944 163.1477,-547.5944 170.1477,-547.5943"/>
</g>
<!-- 607f2b6debfd45b595d117347db3c239 -->
<g id="node16" class="node">
<title>607f2b6debfd45b595d117347db3c239</title>
<ellipse fill="#ffffff" stroke="#000000" cx="220.6476" cy="-519.1811" rx="18" ry="18"/>
<text text-anchor="middle" x="220.6476" y="-515.4811" font-family="Times,serif" font-size="14.00" fill="#000000">E</text>
</g>
<!-- c991977042de4f95a879d6ede45a3133&#45;&gt;607f2b6debfd45b595d117347db3c239 -->
<g id="edge22" class="edge">
<title>c991977042de4f95a879d6ede45a3133&#45;&gt;607f2b6debfd45b595d117347db3c239</title>
<path fill="none" stroke="#000000" d="M177.5753,-576.6108C185.0411,-566.6565 195.0845,-553.2653 203.595,-541.9179"/>
<polygon fill="#000000" stroke="#000000" points="206.5361,-543.8297 209.7362,-533.7297 200.9361,-539.6297 206.5361,-543.8297"/>
</g>
<!-- 75945c3a9ea0470f8ed41a3484fcb685 -->
<g id="node3" class="node">
<title>75945c3a9ea0470f8ed41a3484fcb685</title>
<ellipse fill="#ffffff" stroke="#000000" cx="84.6476" cy="-447.1811" rx="18" ry="18"/>
<text text-anchor="middle" x="84.6476" y="-443.4811" font-family="Times,serif" font-size="14.00" fill="#000000">T</text>
</g>
<!-- 6dbd6b96f0ed4de7a5ce9906962ca339&#45;&gt;75945c3a9ea0470f8ed41a3484fcb685 -->
<g id="edge12" class="edge">
<title>6dbd6b96f0ed4de7a5ce9906962ca339&#45;&gt;75945c3a9ea0470f8ed41a3484fcb685</title>
<path fill="none" stroke="#000000" d="M106.012,-502.1181C102.6993,-493.5997 98.6176,-483.1038 94.9124,-473.5763"/>
<polygon fill="#000000" stroke="#000000" points="98.1222,-472.1731 91.2356,-464.1216 91.5981,-474.7102 98.1222,-472.1731"/>
</g>
<!-- b9444964811e41979dc9086598c5ce06 -->
<g id="node4" class="node">
<title>b9444964811e41979dc9086598c5ce06</title>
<ellipse fill="#ffffff" stroke="#000000" cx="28.6476" cy="-375.1811" rx="18" ry="18"/>
<text text-anchor="middle" x="28.6476" y="-371.4811" font-family="Times,serif" font-size="14.00" fill="#000000">)</text>
</g>
<!-- 75945c3a9ea0470f8ed41a3484fcb685&#45;&gt;b9444964811e41979dc9086598c5ce06 -->
<g id="edge1" class="edge">
<title>75945c3a9ea0470f8ed41a3484fcb685&#45;&gt;b9444964811e41979dc9086598c5ce06</title>
<path fill="none" stroke="#000000" d="M73.5838,-432.9562C65.7864,-422.9309 55.182,-409.2967 46.2329,-397.7907"/>
<polygon fill="#000000" stroke="#000000" points="48.9751,-395.6155 40.0729,-389.8707 43.4496,-399.9131 48.9751,-395.6155"/>
</g>
<!-- 398aecf27e9c47ddb8b03487715e41ec -->
<g id="node5" class="node">
<title>398aecf27e9c47ddb8b03487715e41ec</title>
<ellipse fill="#ffffff" stroke="#000000" cx="82.6476" cy="-375.1811" rx="18" ry="18"/>
<text text-anchor="middle" x="82.6476" y="-371.4811" font-family="Times,serif" font-size="14.00" fill="#000000">E</text>
</g>
<!-- 75945c3a9ea0470f8ed41a3484fcb685&#45;&gt;398aecf27e9c47ddb8b03487715e41ec -->
<g id="edge10" class="edge">
<title>75945c3a9ea0470f8ed41a3484fcb685&#45;&gt;398aecf27e9c47ddb8b03487715e41ec</title>
<path fill="none" stroke="#000000" d="M84.143,-429.0124C83.9291,-421.312 83.6747,-412.1554 83.437,-403.5977"/>
<polygon fill="#000000" stroke="#000000" points="86.9355,-403.4933 83.1591,-393.5944 79.9382,-403.6877 86.9355,-403.4933"/>
</g>
<!-- c577e767440c4a88bb637dcd6a6d4290 -->
<g id="node14" class="node">
<title>c577e767440c4a88bb637dcd6a6d4290</title>
<ellipse fill="#ffffff" stroke="#000000" cx="136.6476" cy="-375.1811" rx="18" ry="18"/>
<text text-anchor="middle" x="136.6476" y="-371.4811" font-family="Times,serif" font-size="14.00" fill="#000000">(</text>
</g>
<!-- 75945c3a9ea0470f8ed41a3484fcb685&#45;&gt;c577e767440c4a88bb637dcd6a6d4290 -->
<g id="edge11" class="edge">
<title>75945c3a9ea0470f8ed41a3484fcb685&#45;&gt;c577e767440c4a88bb637dcd6a6d4290</title>
<path fill="none" stroke="#000000" d="M95.4221,-432.2626C102.464,-422.5122 111.8068,-409.5761 119.8175,-398.4843"/>
<polygon fill="#000000" stroke="#000000" points="122.8694,-400.2365 125.887,-390.0804 117.1947,-396.138 122.8694,-400.2365"/>
</g>
<!-- 9d59c370914f4031b4fa59466c53935f -->
<g id="node6" class="node">
<title>9d59c370914f4031b4fa59466c53935f</title>
<ellipse fill="#ffffff" stroke="#000000" cx="26.6476" cy="-294.5334" rx="18" ry="18"/>
<text text-anchor="middle" x="26.6476" y="-290.8334" font-family="Times,serif" font-size="14.00" fill="#000000">F</text>
</g>
<!-- 398aecf27e9c47ddb8b03487715e41ec&#45;&gt;9d59c370914f4031b4fa59466c53935f -->
<g id="edge4" class="edge">
<title>398aecf27e9c47ddb8b03487715e41ec&#45;&gt;9d59c370914f4031b4fa59466c53935f</title>
<path fill="none" stroke="#000000" d="M72.3764,-360.3891C64.1396,-348.5269 52.4256,-331.6572 42.9158,-317.9618"/>
<polygon fill="#000000" stroke="#000000" points="45.622,-315.7225 37.0434,-309.5048 39.8722,-319.715 45.622,-315.7225"/>
</g>
<!-- 876bedf6b1654cbd95fed9bf0b928116 -->
<g id="node9" class="node">
<title>876bedf6b1654cbd95fed9bf0b928116</title>
<ellipse fill="#ffffff" stroke="#000000" cx="80.6476" cy="-294.5334" rx="18" ry="18"/>
<text text-anchor="middle" x="80.6476" y="-290.8334" font-family="Times,serif" font-size="14.00" fill="#000000">+</text>
</g>
<!-- 398aecf27e9c47ddb8b03487715e41ec&#45;&gt;876bedf6b1654cbd95fed9bf0b928116 -->
<g id="edge5" class="edge">
<title>398aecf27e9c47ddb8b03487715e41ec&#45;&gt;876bedf6b1654cbd95fed9bf0b928116</title>
<path fill="none" stroke="#000000" d="M82.1938,-356.8809C81.9458,-346.8789 81.6331,-334.2692 81.3539,-323.0114"/>
<polygon fill="#000000" stroke="#000000" points="84.8466,-322.6713 81.0997,-312.7612 77.8488,-322.845 84.8466,-322.6713"/>
</g>
<!-- 4de09f15e3ed49e3b1e8f3a569d470aa -->
<g id="node10" class="node">
<title>4de09f15e3ed49e3b1e8f3a569d470aa</title>
<ellipse fill="#ffffff" stroke="#000000" cx="134.6476" cy="-294.5334" rx="18" ry="18"/>
<text text-anchor="middle" x="134.6476" y="-290.8334" font-family="Times,serif" font-size="14.00" fill="#000000">E</text>
</g>
<!-- 398aecf27e9c47ddb8b03487715e41ec&#45;&gt;4de09f15e3ed49e3b1e8f3a569d470aa -->
<g id="edge9" class="edge">
<title>398aecf27e9c47ddb8b03487715e41ec&#45;&gt;4de09f15e3ed49e3b1e8f3a569d470aa</title>
<path fill="none" stroke="#000000" d="M92.4284,-360.0119C99.9343,-348.371 110.4427,-332.0733 119.0977,-318.6501"/>
<polygon fill="#000000" stroke="#000000" points="122.2564,-320.2099 124.7339,-309.9088 116.3733,-316.4166 122.2564,-320.2099"/>
</g>
<!-- 998eedd5b37243c1bd4d6728cd3a414c -->
<g id="node7" class="node">
<title>998eedd5b37243c1bd4d6728cd3a414c</title>
<ellipse fill="#ffffff" stroke="#000000" cx="26.6476" cy="-205.2382" rx="18" ry="18"/>
<text text-anchor="middle" x="26.6476" y="-201.5382" font-family="Times,serif" font-size="14.00" fill="#000000">T</text>
</g>
<!-- 9d59c370914f4031b4fa59466c53935f&#45;&gt;998eedd5b37243c1bd4d6728cd3a414c -->
<g id="edge3" class="edge">
<title>9d59c370914f4031b4fa59466c53935f&#45;&gt;998eedd5b37243c1bd4d6728cd3a414c</title>
<path fill="none" stroke="#000000" d="M26.6476,-276.4632C26.6476,-264.1178 26.6476,-247.5098 26.6476,-233.4367"/>
<polygon fill="#000000" stroke="#000000" points="30.1477,-233.2815 26.6476,-223.2815 23.1477,-233.2816 30.1477,-233.2815"/>
</g>
<!-- fbe113061e2d44478341a9ff1e925839 -->
<g id="node8" class="node">
<title>fbe113061e2d44478341a9ff1e925839</title>
<ellipse fill="#ffffff" stroke="#000000" cx="26.6476" cy="-115.9429" rx="26.7961" ry="26.7961"/>
<text text-anchor="middle" x="26.6476" y="-112.2429" font-family="Times,serif" font-size="14.00" fill="#000000">num</text>
</g>
<!-- 998eedd5b37243c1bd4d6728cd3a414c&#45;&gt;fbe113061e2d44478341a9ff1e925839 -->
<g id="edge2" class="edge">
<title>998eedd5b37243c1bd4d6728cd3a414c&#45;&gt;fbe113061e2d44478341a9ff1e925839</title>
<path fill="none" stroke="#000000" d="M26.6476,-187.1679C26.6476,-177.314 26.6476,-164.7445 26.6476,-152.916"/>
<polygon fill="#000000" stroke="#000000" points="30.1477,-152.7987 26.6476,-142.7987 23.1477,-152.7988 30.1477,-152.7987"/>
</g>
<!-- 6dcb5c730caa4e06b8bcc942e0bbeec5 -->
<g id="node11" class="node">
<title>6dcb5c730caa4e06b8bcc942e0bbeec5</title>
<ellipse fill="#ffffff" stroke="#000000" cx="134.6476" cy="-205.2382" rx="18" ry="18"/>
<text text-anchor="middle" x="134.6476" y="-201.5382" font-family="Times,serif" font-size="14.00" fill="#000000">F</text>
</g>
<!-- 4de09f15e3ed49e3b1e8f3a569d470aa&#45;&gt;6dcb5c730caa4e06b8bcc942e0bbeec5 -->
<g id="edge8" class="edge">
<title>4de09f15e3ed49e3b1e8f3a569d470aa&#45;&gt;6dcb5c730caa4e06b8bcc942e0bbeec5</title>
<path fill="none" stroke="#000000" d="M134.6476,-276.4632C134.6476,-264.1178 134.6476,-247.5098 134.6476,-233.4367"/>
<polygon fill="#000000" stroke="#000000" points="138.1477,-233.2815 134.6476,-223.2815 131.1477,-233.2816 138.1477,-233.2815"/>
</g>
<!-- 23fc046333f545a3a245a54a4e11e83f -->
<g id="node12" class="node">
<title>23fc046333f545a3a245a54a4e11e83f</title>
<ellipse fill="#ffffff" stroke="#000000" cx="134.6476" cy="-115.9429" rx="18" ry="18"/>
<text text-anchor="middle" x="134.6476" y="-112.2429" font-family="Times,serif" font-size="14.00" fill="#000000">T</text>
</g>
<!-- 6dcb5c730caa4e06b8bcc942e0bbeec5&#45;&gt;23fc046333f545a3a245a54a4e11e83f -->
<g id="edge7" class="edge">
<title>6dcb5c730caa4e06b8bcc942e0bbeec5&#45;&gt;23fc046333f545a3a245a54a4e11e83f</title>
<path fill="none" stroke="#000000" d="M134.6476,-187.1679C134.6476,-174.8225 134.6476,-158.2146 134.6476,-144.1414"/>
<polygon fill="#000000" stroke="#000000" points="138.1477,-143.9862 134.6476,-133.9863 131.1477,-143.9863 138.1477,-143.9862"/>
</g>
<!-- c4144300f6d44c9da7ff8e84467c4ca5 -->
<g id="node13" class="node">
<title>c4144300f6d44c9da7ff8e84467c4ca5</title>
<ellipse fill="#ffffff" stroke="#000000" cx="134.6476" cy="-26.6476" rx="26.7961" ry="26.7961"/>
<text text-anchor="middle" x="134.6476" y="-22.9476" font-family="Times,serif" font-size="14.00" fill="#000000">num</text>
</g>
<!-- 23fc046333f545a3a245a54a4e11e83f&#45;&gt;c4144300f6d44c9da7ff8e84467c4ca5 -->
<g id="edge6" class="edge">
<title>23fc046333f545a3a245a54a4e11e83f&#45;&gt;c4144300f6d44c9da7ff8e84467c4ca5</title>
<path fill="none" stroke="#000000" d="M134.6476,-97.8727C134.6476,-88.0188 134.6476,-75.4493 134.6476,-63.6207"/>
<polygon fill="#000000" stroke="#000000" points="138.1477,-63.5034 134.6476,-53.5035 131.1477,-63.5035 138.1477,-63.5034"/>
</g>
<!-- 044c1ec35e6b4675a85dee587022487b -->
<g id="node17" class="node">
<title>044c1ec35e6b4675a85dee587022487b</title>
<ellipse fill="#ffffff" stroke="#000000" cx="221.6476" cy="-447.1811" rx="18" ry="18"/>
<text text-anchor="middle" x="221.6476" y="-443.4811" font-family="Times,serif" font-size="14.00" fill="#000000">F</text>
</g>
<!-- 607f2b6debfd45b595d117347db3c239&#45;&gt;044c1ec35e6b4675a85dee587022487b -->
<g id="edge21" class="edge">
<title>607f2b6debfd45b595d117347db3c239&#45;&gt;044c1ec35e6b4675a85dee587022487b</title>
<path fill="none" stroke="#000000" d="M220.9,-501.0124C221.0069,-493.312 221.1341,-484.1554 221.253,-475.5977"/>
<polygon fill="#000000" stroke="#000000" points="224.7526,-475.642 221.3919,-465.5944 217.7533,-475.5447 224.7526,-475.642"/>
</g>
<!-- 731f30738c74422bbc80d47b10319565 -->
<g id="node18" class="node">
<title>731f30738c74422bbc80d47b10319565</title>
<ellipse fill="#ffffff" stroke="#000000" cx="194.6476" cy="-375.1811" rx="18" ry="18"/>
<text text-anchor="middle" x="194.6476" y="-371.4811" font-family="Times,serif" font-size="14.00" fill="#000000">T</text>
</g>
<!-- 044c1ec35e6b4675a85dee587022487b&#45;&gt;731f30738c74422bbc80d47b10319565 -->
<g id="edge16" class="edge">
<title>044c1ec35e6b4675a85dee587022487b&#45;&gt;731f30738c74422bbc80d47b10319565</title>
<path fill="none" stroke="#000000" d="M215.249,-430.1181C212.0546,-421.5997 208.1187,-411.1038 204.5458,-401.5763"/>
<polygon fill="#000000" stroke="#000000" points="207.7888,-400.2559 201.0003,-392.1216 201.2345,-402.7139 207.7888,-400.2559"/>
</g>
<!-- 3b6f566435a84049a13bcaaf53a31f41 -->
<g id="node20" class="node">
<title>3b6f566435a84049a13bcaaf53a31f41</title>
<ellipse fill="#ffffff" stroke="#000000" cx="248.6476" cy="-375.1811" rx="18" ry="18"/>
<text text-anchor="middle" x="248.6476" y="-371.4811" font-family="Times,serif" font-size="14.00" fill="#000000">*</text>
</g>
<!-- 044c1ec35e6b4675a85dee587022487b&#45;&gt;3b6f566435a84049a13bcaaf53a31f41 -->
<g id="edge17" class="edge">
<title>044c1ec35e6b4675a85dee587022487b&#45;&gt;3b6f566435a84049a13bcaaf53a31f41</title>
<path fill="none" stroke="#000000" d="M228.0463,-430.1181C231.2406,-421.5997 235.1766,-411.1038 238.7494,-401.5763"/>
<polygon fill="#000000" stroke="#000000" points="242.0608,-402.7139 242.2949,-392.1216 235.5065,-400.2559 242.0608,-402.7139"/>
</g>
<!-- bd8f350241654a24bc717edc9c2236e8 -->
<g id="node21" class="node">
<title>bd8f350241654a24bc717edc9c2236e8</title>
<ellipse fill="#ffffff" stroke="#000000" cx="302.6476" cy="-375.1811" rx="18" ry="18"/>
<text text-anchor="middle" x="302.6476" y="-371.4811" font-family="Times,serif" font-size="14.00" fill="#000000">F</text>
</g>
<!-- 044c1ec35e6b4675a85dee587022487b&#45;&gt;bd8f350241654a24bc717edc9c2236e8 -->
<g id="edge20" class="edge">
<title>044c1ec35e6b4675a85dee587022487b&#45;&gt;bd8f350241654a24bc717edc9c2236e8</title>
<path fill="none" stroke="#000000" d="M235.3882,-434.9673C248.0319,-423.7284 266.9738,-406.8912 281.5374,-393.9458"/>
<polygon fill="#000000" stroke="#000000" points="283.9612,-396.4741 289.11,-387.2145 279.3106,-391.2423 283.9612,-396.4741"/>
</g>
<!-- 9ff2858488654ef38a168bf9f4718fc8 -->
<g id="node19" class="node">
<title>9ff2858488654ef38a168bf9f4718fc8</title>
<ellipse fill="#ffffff" stroke="#000000" cx="197.6476" cy="-294.5334" rx="26.7961" ry="26.7961"/>
<text text-anchor="middle" x="197.6476" y="-290.8334" font-family="Times,serif" font-size="14.00" fill="#000000">num</text>
</g>
<!-- 731f30738c74422bbc80d47b10319565&#45;&gt;9ff2858488654ef38a168bf9f4718fc8 -->
<g id="edge15" class="edge">
<title>731f30738c74422bbc80d47b10319565&#45;&gt;9ff2858488654ef38a168bf9f4718fc8</title>
<path fill="none" stroke="#000000" d="M195.3284,-356.8809C195.6092,-349.3318 195.9453,-340.2973 196.2733,-331.4797"/>
<polygon fill="#000000" stroke="#000000" points="199.7766,-331.4534 196.6508,-321.3302 192.7814,-331.1931 199.7766,-331.4534"/>
</g>
<!-- 879f01db12cb428daafc5147ac6b2d19 -->
<g id="node22" class="node">
<title>879f01db12cb428daafc5147ac6b2d19</title>
<ellipse fill="#ffffff" stroke="#000000" cx="302.6476" cy="-294.5334" rx="18" ry="18"/>
<text text-anchor="middle" x="302.6476" y="-290.8334" font-family="Times,serif" font-size="14.00" fill="#000000">T</text>
</g>
<!-- bd8f350241654a24bc717edc9c2236e8&#45;&gt;879f01db12cb428daafc5147ac6b2d19 -->
<g id="edge19" class="edge">
<title>bd8f350241654a24bc717edc9c2236e8&#45;&gt;879f01db12cb428daafc5147ac6b2d19</title>
<path fill="none" stroke="#000000" d="M302.6476,-356.8809C302.6476,-346.8789 302.6476,-334.2692 302.6476,-323.0114"/>
<polygon fill="#000000" stroke="#000000" points="306.1477,-322.7612 302.6476,-312.7612 299.1477,-322.7613 306.1477,-322.7612"/>
</g>
<!-- 1eaa18bd066341d2ae37c5137aabf009 -->
<g id="node23" class="node">
<title>1eaa18bd066341d2ae37c5137aabf009</title>
<ellipse fill="#ffffff" stroke="#000000" cx="302.6476" cy="-205.2382" rx="26.7961" ry="26.7961"/>
<text text-anchor="middle" x="302.6476" y="-201.5382" font-family="Times,serif" font-size="14.00" fill="#000000">num</text>
</g>
<!-- 879f01db12cb428daafc5147ac6b2d19&#45;&gt;1eaa18bd066341d2ae37c5137aabf009 -->
<g id="edge18" class="edge">
<title>879f01db12cb428daafc5147ac6b2d19&#45;&gt;1eaa18bd066341d2ae37c5137aabf009</title>
<path fill="none" stroke="#000000" d="M302.6476,-276.4632C302.6476,-266.6093 302.6476,-254.0398 302.6476,-242.2112"/>
<polygon fill="#000000" stroke="#000000" points="306.1477,-242.094 302.6476,-232.094 299.1477,-242.0941 306.1477,-242.094"/>
</g>
</g>
</svg>
